<svg version="1.1" xmlns="http://www.w3.org/2000/svg" xmlns:xlink="http://www.w3.org/1999/xlink" width="1910" height="650"><defs></defs><g transform="translate(0,0)"><g><rect fill="#FFFFFF" stroke="none" x="0" y="0" width="1910" height="650"></rect></g><g transform="translate(0,0) matrix(1,0,0,1,830,30)"><g><g transform="translate(0,0) scale(1,0.75)"><g><path fill="#FFFFFF" stroke="none" d="M 0 0 L 100 0 Q 100 0 100 0 L 100 100 Q 100 100 100 100 L 0 100 Q 0 100 0 100 L 0 0 Q 0 0 0 0 Z"></path><g transform="scale(1,1.3333333333333333)"><path fill="none" stroke="#333333" d="M 0 0 L 100 0 Q 100 0 100 0 L 100 75 Q 100 75 100 75 L 0 75 Q 0 75 0 75 L 0 0 Q 0 0 0 0 Z" stroke-miterlimit="10" stroke-width="2"></path></g></g><g><g transform="scale(1,1.3333333333333333)"><path fill="rgb(0,0,0)" stroke="none" d="M 2 1.5 L 2 72.75 L 97 72.75 L 97 2.25 L 3 2.25 Z" fill-opacity="0" opacity="0"></path><path fill="none" stroke="#3C7626" d="M 2 1.5 M 2 1.5 L 2 5.5 M 2 5.5 M 2 7.5 L 2 11.5 M 2 11.5 M 2 13.5 L 2 17.5 M 2 17.5 M 2 19.5 L 2 23.5 M 2 23.5 M 2 25.5 L 2 29.5 M 2 29.5 M 2 31.5 L 2 35.5 M 2 35.5 M 2 37.5 L 2 41.5 M 2 41.5 M 2 43.5 L 2 47.5 M 2 47.5 M 2 49.5 L 2 53.5 M 2 53.5 M 2 55.5 L 2 59.5 M 2 59.5 M 2 61.5 L 2 65.5 M 2 65.5 M 2 67.5 L 2 71.5 M 2 71.5 M 2.75 72.75 L 6.75 72.75 M 6.75 72.75 M 8.75 72.75 L 12.75 72.75 M 12.75 72.75 M 14.75 72.75 L 18.75 72.75 M 18.75 72.75 M 20.75 72.75 L 24.75 72.75 M 24.75 72.75 M 26.75 72.75 L 30.75 72.75 M 30.75 72.75 M 32.75 72.75 L 36.75 72.75 M 36.75 72.75 M 38.75 72.75 L 42.75 72.75 M 42.75 72.75 M 44.75 72.75 L 48.75 72.75 M 48.75 72.75 M 50.75 72.75 L 54.75 72.75 M 54.75 72.75 M 56.75 72.75 L 60.75 72.75 M 60.75 72.75 M 62.75 72.75 L 66.75 72.75 M 66.75 72.75 M 68.75 72.75 L 72.75 72.75 M 72.75 72.75 M 74.75 72.75 L 78.75 72.75 M 78.75 72.75 M 80.75 72.75 L 84.75 72.75 M 84.75 72.75 M 86.75 72.75 L 90.75 72.75 M 90.75 72.75 M 92.75 72.75 L 96.75 72.75 M 96.75 72.75 M 97 71 L 97 67 M 97 67 M 97 65 L 97 61 M 97 61 M 97 59 L 97 55 M 97 55 M 97 53 L 97 49 M 97 49 M 97 47 L 97 43 M 97 43 M 97 41 L 97 37 M 97 37 M 97 35 L 97 31 M 97 31 M 97 29 L 97 25 M 97 25 M 97 23 L 97 19 M 97 19 M 97 17 L 97 13 M 97 13 M 97 11 L 97 7 M 97 7 M 97 5 L 97 2.25 L 95.75 2.25 M 95.75 2.25 M 93.75 2.25 L 89.75 2.25 M 89.75 2.25 M 87.75 2.25 L 83.75 2.25 M 83.75 2.25 M 81.75 2.25 L 77.75 2.25 M 77.75 2.25 M 75.75 2.25 L 71.75 2.25 M 71.75 2.25 M 69.75 2.25 L 65.75 2.25 M 65.75 2.25 M 63.75 2.25 L 59.75 2.25 M 59.75 2.25 M 57.75 2.25 L 53.75 2.25 M 53.75 2.25 M 51.75 2.25 L 47.75 2.25 M 47.75 2.25 M 45.75 2.25 L 41.75 2.25 M 41.75 2.25 M 39.75 2.25 L 35.75 2.25 M 35.75 2.25 M 33.75 2.25 L 29.75 2.25 M 29.75 2.25 M 27.75 2.25 L 23.75 2.25 M 23.75 2.25 M 21.75 2.25 L 17.75 2.25 M 17.75 2.25 M 15.75 2.25 L 11.75 2.25 M 11.75 2.25 M 9.75 2.25 L 5.75 2.25 M 5.75 2.25 M 3.75 2.25 L 3 2.25 Z" stroke-miterlimit="10" stroke-width="2" opacity="0"></path></g></g></g></g></g><g transform="scale(1,1) matrix(1,0,0,1,832,30) translate(2,30.5)"><text fill="#000000" stroke="none" font-family="Arial" font-size="12px" font-style="normal" font-weight="normal" text-decoration="none" x="13" y="11">App Launch</text></g><g transform="translate(0,0) matrix(1,0,0,1,830,132.5)"><g><g transform="translate(0,0) scale(1,0.75)"><g><path fill="#FFFFFF" stroke="none" d="M 0 0 L 100 0 Q 100 0 100 0 L 100 100 Q 100 100 100 100 L 0 100 Q 0 100 0 100 L 0 0 Q 0 0 0 0 Z"></path><g transform="scale(1,1.3333333333333333)"><path fill="none" stroke="#333333" d="M 0 0 L 100 0 Q 100 0 100 0 L 100 75 Q 100 75 100 75 L 0 75 Q 0 75 0 75 L 0 0 Q 0 0 0 0 Z" stroke-miterlimit="10" stroke-width="2"></path></g></g><g><g transform="scale(1,1.3333333333333333)"><path fill="rgb(0,0,0)" stroke="none" d="M 2 1.5 L 2 72.75 L 97 72.75 L 97 2.25 L 3 2.25 Z" fill-opacity="0" opacity="0"></path><path fill="none" stroke="#3C7626" d="M 2 1.5 M 2 1.5 L 2 5.5 M 2 5.5 M 2 7.5 L 2 11.5 M 2 11.5 M 2 13.5 L 2 17.5 M 2 17.5 M 2 19.5 L 2 23.5 M 2 23.5 M 2 25.5 L 2 29.5 M 2 29.5 M 2 31.5 L 2 35.5 M 2 35.5 M 2 37.5 L 2 41.5 M 2 41.5 M 2 43.5 L 2 47.5 M 2 47.5 M 2 49.5 L 2 53.5 M 2 53.5 M 2 55.5 L 2 59.5 M 2 59.5 M 2 61.5 L 2 65.5 M 2 65.5 M 2 67.5 L 2 71.5 M 2 71.5 M 2.75 72.75 L 6.75 72.75 M 6.75 72.75 M 8.75 72.75 L 12.75 72.75 M 12.75 72.75 M 14.75 72.75 L 18.75 72.75 M 18.75 72.75 M 20.75 72.75 L 24.75 72.75 M 24.75 72.75 M 26.75 72.75 L 30.75 72.75 M 30.75 72.75 M 32.75 72.75 L 36.75 72.75 M 36.75 72.75 M 38.75 72.75 L 42.75 72.75 M 42.75 72.75 M 44.75 72.75 L 48.75 72.75 M 48.75 72.75 M 50.75 72.75 L 54.75 72.75 M 54.75 72.75 M 56.75 72.75 L 60.75 72.75 M 60.75 72.75 M 62.75 72.75 L 66.75 72.75 M 66.75 72.75 M 68.75 72.75 L 72.75 72.75 M 72.75 72.75 M 74.75 72.75 L 78.75 72.75 M 78.75 72.75 M 80.75 72.75 L 84.75 72.75 M 84.75 72.75 M 86.75 72.75 L 90.75 72.75 M 90.75 72.75 M 92.75 72.75 L 96.75 72.75 M 96.75 72.75 M 97 71 L 97 67 M 97 67 M 97 65 L 97 61 M 97 61 M 97 59 L 97 55 M 97 55 M 97 53 L 97 49 M 97 49 M 97 47 L 97 43 M 97 43 M 97 41 L 97 37 M 97 37 M 97 35 L 97 31 M 97 31 M 97 29 L 97 25 M 97 25 M 97 23 L 97 19 M 97 19 M 97 17 L 97 13 M 97 13 M 97 11 L 97 7 M 97 7 M 97 5 L 97 2.25 L 95.75 2.25 M 95.75 2.25 M 93.75 2.25 L 89.75 2.25 M 89.75 2.25 M 87.75 2.25 L 83.75 2.25 M 83.75 2.25 M 81.75 2.25 L 77.75 2.25 M 77.75 2.25 M 75.75 2.25 L 71.75 2.25 M 71.75 2.25 M 69.75 2.25 L 65.75 2.25 M 65.75 2.25 M 63.75 2.25 L 59.75 2.25 M 59.75 2.25 M 57.75 2.25 L 53.75 2.25 M 53.75 2.25 M 51.75 2.25 L 47.75 2.25 M 47.75 2.25 M 45.75 2.25 L 41.75 2.25 M 41.75 2.25 M 39.75 2.25 L 35.75 2.25 M 35.75 2.25 M 33.75 2.25 L 29.75 2.25 M 29.75 2.25 M 27.75 2.25 L 23.75 2.25 M 23.75 2.25 M 21.75 2.25 L 17.75 2.25 M 17.75 2.25 M 15.75 2.25 L 11.75 2.25 M 11.75 2.25 M 9.75 2.25 L 5.75 2.25 M 5.75 2.25 M 3.75 2.25 L 3 2.25 Z" stroke-miterlimit="10" stroke-width="2" opacity="0"></path></g></g></g></g></g><g transform="scale(1,1) matrix(1,0,0,1,832,132.5) translate(2,30.5)"><text fill="#000000" stroke="none" font-family="Arial" font-size="12px" font-style="normal" font-weight="normal" text-decoration="none" x="11.5" y="11">Main Screen</text></g><g transform="translate(0,0) matrix(1,0,0,1,700,132.5)"><g><g transform="translate(0,0) scale(1,0.75)"><g><path fill="#FFFFFF" stroke="none" d="M 0 0 L 100 0 Q 100 0 100 0 L 100 100 Q 100 100 100 100 L 0 100 Q 0 100 0 100 L 0 0 Q 0 0 0 0 Z"></path><g transform="scale(1,1.3333333333333333)"><path fill="none" stroke="#333333" d="M 0 0 L 100 0 Q 100 0 100 0 L 100 75 Q 100 75 100 75 L 0 75 Q 0 75 0 75 L 0 0 Q 0 0 0 0 Z" stroke-miterlimit="10" stroke-width="2"></path></g></g><g><g transform="scale(1,1.3333333333333333)"><path fill="rgb(0,0,0)" stroke="none" d="M 2 1.5 L 2 72.75 L 97 72.75 L 97 2.25 L 3 2.25 Z" fill-opacity="0" opacity="0"></path><path fill="none" stroke="#3C7626" d="M 2 1.5 M 2 1.5 L 2 5.5 M 2 5.5 M 2 7.5 L 2 11.5 M 2 11.5 M 2 13.5 L 2 17.5 M 2 17.5 M 2 19.5 L 2 23.5 M 2 23.5 M 2 25.5 L 2 29.5 M 2 29.5 M 2 31.5 L 2 35.5 M 2 35.5 M 2 37.5 L 2 41.5 M 2 41.5 M 2 43.5 L 2 47.5 M 2 47.5 M 2 49.5 L 2 53.5 M 2 53.5 M 2 55.5 L 2 59.5 M 2 59.5 M 2 61.5 L 2 65.5 M 2 65.5 M 2 67.5 L 2 71.5 M 2 71.5 M 2.75 72.75 L 6.75 72.75 M 6.75 72.75 M 8.75 72.75 L 12.75 72.75 M 12.75 72.75 M 14.75 72.75 L 18.75 72.75 M 18.75 72.75 M 20.75 72.75 L 24.75 72.75 M 24.75 72.75 M 26.75 72.75 L 30.75 72.75 M 30.75 72.75 M 32.75 72.75 L 36.75 72.75 M 36.75 72.75 M 38.75 72.75 L 42.75 72.75 M 42.75 72.75 M 44.75 72.75 L 48.75 72.75 M 48.75 72.75 M 50.75 72.75 L 54.75 72.75 M 54.75 72.75 M 56.75 72.75 L 60.75 72.75 M 60.75 72.75 M 62.75 72.75 L 66.75 72.75 M 66.75 72.75 M 68.75 72.75 L 72.75 72.75 M 72.75 72.75 M 74.75 72.75 L 78.75 72.75 M 78.75 72.75 M 80.75 72.75 L 84.75 72.75 M 84.75 72.75 M 86.75 72.75 L 90.75 72.75 M 90.75 72.75 M 92.75 72.75 L 96.75 72.75 M 96.75 72.75 M 97 71 L 97 67 M 97 67 M 97 65 L 97 61 M 97 61 M 97 59 L 97 55 M 97 55 M 97 53 L 97 49 M 97 49 M 97 47 L 97 43 M 97 43 M 97 41 L 97 37 M 97 37 M 97 35 L 97 31 M 97 31 M 97 29 L 97 25 M 97 25 M 97 23 L 97 19 M 97 19 M 97 17 L 97 13 M 97 13 M 97 11 L 97 7 M 97 7 M 97 5 L 97 2.25 L 95.75 2.25 M 95.75 2.25 M 93.75 2.25 L 89.75 2.25 M 89.75 2.25 M 87.75 2.25 L 83.75 2.25 M 83.75 2.25 M 81.75 2.25 L 77.75 2.25 M 77.75 2.25 M 75.75 2.25 L 71.75 2.25 M 71.75 2.25 M 69.75 2.25 L 65.75 2.25 M 65.75 2.25 M 63.75 2.25 L 59.75 2.25 M 59.75 2.25 M 57.75 2.25 L 53.75 2.25 M 53.75 2.25 M 51.75 2.25 L 47.75 2.25 M 47.75 2.25 M 45.75 2.25 L 41.75 2.25 M 41.75 2.25 M 39.75 2.25 L 35.75 2.25 M 35.75 2.25 M 33.75 2.25 L 29.75 2.25 M 29.75 2.25 M 27.75 2.25 L 23.75 2.25 M 23.75 2.25 M 21.75 2.25 L 17.75 2.25 M 17.75 2.25 M 15.75 2.25 L 11.75 2.25 M 11.75 2.25 M 9.75 2.25 L 5.75 2.25 M 5.75 2.25 M 3.75 2.25 L 3 2.25 Z" stroke-miterlimit="10" stroke-width="2" opacity="0"></path></g></g></g></g></g><g transform="scale(1,1) matrix(1,0,0,1,702,132.5) translate(2,30.5)"><text fill="#000000" stroke="none" font-family="Arial" font-size="12px" font-style="normal" font-weight="normal" text-decoration="none" x="12.5" y="11">Ask A Rabbi</text></g><g transform="translate(0,0) matrix(1,0,0,1,960,132.5)"><g><g transform="translate(0,0) scale(1,0.75)"><g><path fill="#FFFFFF" stroke="none" d="M 0 0 L 100 0 Q 100 0 100 0 L 100 100 Q 100 100 100 100 L 0 100 Q 0 100 0 100 L 0 0 Q 0 0 0 0 Z"></path><g transform="scale(1,1.3333333333333333)"><path fill="none" stroke="#333333" d="M 0 0 L 100 0 Q 100 0 100 0 L 100 75 Q 100 75 100 75 L 0 75 Q 0 75 0 75 L 0 0 Q 0 0 0 0 Z" stroke-miterlimit="10" stroke-width="2"></path></g></g><g><g transform="scale(1,1.3333333333333333)"><path fill="rgb(0,0,0)" stroke="none" d="M 2 1.5 L 2 72.75 L 97 72.75 L 97 2.25 L 3 2.25 Z" fill-opacity="0" opacity="0"></path><path fill="none" stroke="#3C7626" d="M 2 1.5 M 2 1.5 L 2 5.5 M 2 5.5 M 2 7.5 L 2 11.5 M 2 11.5 M 2 13.5 L 2 17.5 M 2 17.5 M 2 19.5 L 2 23.5 M 2 23.5 M 2 25.5 L 2 29.5 M 2 29.5 M 2 31.5 L 2 35.5 M 2 35.5 M 2 37.5 L 2 41.5 M 2 41.5 M 2 43.5 L 2 47.5 M 2 47.5 M 2 49.5 L 2 53.5 M 2 53.5 M 2 55.5 L 2 59.5 M 2 59.5 M 2 61.5 L 2 65.5 M 2 65.5 M 2 67.5 L 2 71.5 M 2 71.5 M 2.75 72.75 L 6.75 72.75 M 6.75 72.75 M 8.75 72.75 L 12.75 72.75 M 12.75 72.75 M 14.75 72.75 L 18.75 72.75 M 18.75 72.75 M 20.75 72.75 L 24.75 72.75 M 24.75 72.75 M 26.75 72.75 L 30.75 72.75 M 30.75 72.75 M 32.75 72.75 L 36.75 72.75 M 36.75 72.75 M 38.75 72.75 L 42.75 72.75 M 42.75 72.75 M 44.75 72.75 L 48.75 72.75 M 48.75 72.75 M 50.75 72.75 L 54.75 72.75 M 54.75 72.75 M 56.75 72.75 L 60.75 72.75 M 60.75 72.75 M 62.75 72.75 L 66.75 72.75 M 66.75 72.75 M 68.75 72.75 L 72.75 72.75 M 72.75 72.75 M 74.75 72.75 L 78.75 72.75 M 78.75 72.75 M 80.75 72.75 L 84.75 72.75 M 84.75 72.75 M 86.75 72.75 L 90.75 72.75 M 90.75 72.75 M 92.75 72.75 L 96.75 72.75 M 96.75 72.75 M 97 71 L 97 67 M 97 67 M 97 65 L 97 61 M 97 61 M 97 59 L 97 55 M 97 55 M 97 53 L 97 49 M 97 49 M 97 47 L 97 43 M 97 43 M 97 41 L 97 37 M 97 37 M 97 35 L 97 31 M 97 31 M 97 29 L 97 25 M 97 25 M 97 23 L 97 19 M 97 19 M 97 17 L 97 13 M 97 13 M 97 11 L 97 7 M 97 7 M 97 5 L 97 2.25 L 95.75 2.25 M 95.75 2.25 M 93.75 2.25 L 89.75 2.25 M 89.75 2.25 M 87.75 2.25 L 83.75 2.25 M 83.75 2.25 M 81.75 2.25 L 77.75 2.25 M 77.75 2.25 M 75.75 2.25 L 71.75 2.25 M 71.75 2.25 M 69.75 2.25 L 65.75 2.25 M 65.75 2.25 M 63.75 2.25 L 59.75 2.25 M 59.75 2.25 M 57.75 2.25 L 53.75 2.25 M 53.75 2.25 M 51.75 2.25 L 47.75 2.25 M 47.75 2.25 M 45.75 2.25 L 41.75 2.25 M 41.75 2.25 M 39.75 2.25 L 35.75 2.25 M 35.75 2.25 M 33.75 2.25 L 29.75 2.25 M 29.75 2.25 M 27.75 2.25 L 23.75 2.25 M 23.75 2.25 M 21.75 2.25 L 17.75 2.25 M 17.75 2.25 M 15.75 2.25 L 11.75 2.25 M 11.75 2.25 M 9.75 2.25 L 5.75 2.25 M 5.75 2.25 M 3.75 2.25 L 3 2.25 Z" stroke-miterlimit="10" stroke-width="2" opacity="0"></path></g></g></g></g></g><g transform="scale(1,1) matrix(1,0,0,1,962,132.5) translate(2,30.5)"><text fill="#000000" stroke="none" font-family="Arial" font-size="12px" font-style="normal" font-weight="normal" text-decoration="none" x="30" y="11">Music</text></g><g transform="translate(0,0) matrix(1,0,0,1,960,230)"><g><g transform="translate(0,0) scale(1,0.75)"><g><path fill="#FFFFFF" stroke="none" d="M 0 0 L 100 0 Q 100 0 100 0 L 100 100 Q 100 100 100 100 L 0 100 Q 0 100 0 100 L 0 0 Q 0 0 0 0 Z"></path><g transform="scale(1,1.3333333333333333)"><path fill="none" stroke="#333333" d="M 0 0 L 100 0 Q 100 0 100 0 L 100 75 Q 100 75 100 75 L 0 75 Q 0 75 0 75 L 0 0 Q 0 0 0 0 Z" stroke-miterlimit="10" stroke-width="2"></path></g></g><g><g transform="scale(1,1.3333333333333333)"><path fill="rgb(0,0,0)" stroke="none" d="M 2 1.5 L 2 72.75 L 97 72.75 L 97 2.25 L 3 2.25 Z" fill-opacity="0" opacity="0"></path><path fill="none" stroke="#3C7626" d="M 2 1.5 M 2 1.5 L 2 5.5 M 2 5.5 M 2 7.5 L 2 11.5 M 2 11.5 M 2 13.5 L 2 17.5 M 2 17.5 M 2 19.5 L 2 23.5 M 2 23.5 M 2 25.5 L 2 29.5 M 2 29.5 M 2 31.5 L 2 35.5 M 2 35.5 M 2 37.5 L 2 41.5 M 2 41.5 M 2 43.5 L 2 47.5 M 2 47.5 M 2 49.5 L 2 53.5 M 2 53.5 M 2 55.5 L 2 59.5 M 2 59.5 M 2 61.5 L 2 65.5 M 2 65.5 M 2 67.5 L 2 71.5 M 2 71.5 M 2.75 72.75 L 6.75 72.75 M 6.75 72.75 M 8.75 72.75 L 12.75 72.75 M 12.75 72.75 M 14.75 72.75 L 18.75 72.75 M 18.75 72.75 M 20.75 72.75 L 24.75 72.75 M 24.75 72.75 M 26.75 72.75 L 30.75 72.75 M 30.75 72.75 M 32.75 72.75 L 36.75 72.75 M 36.75 72.75 M 38.75 72.75 L 42.75 72.75 M 42.75 72.75 M 44.75 72.75 L 48.75 72.75 M 48.75 72.75 M 50.75 72.75 L 54.75 72.75 M 54.75 72.75 M 56.75 72.75 L 60.75 72.75 M 60.75 72.75 M 62.75 72.75 L 66.75 72.75 M 66.75 72.75 M 68.75 72.75 L 72.75 72.75 M 72.75 72.75 M 74.75 72.75 L 78.75 72.75 M 78.75 72.75 M 80.75 72.75 L 84.75 72.75 M 84.75 72.75 M 86.75 72.75 L 90.75 72.75 M 90.75 72.75 M 92.75 72.75 L 96.75 72.75 M 96.75 72.75 M 97 71 L 97 67 M 97 67 M 97 65 L 97 61 M 97 61 M 97 59 L 97 55 M 97 55 M 97 53 L 97 49 M 97 49 M 97 47 L 97 43 M 97 43 M 97 41 L 97 37 M 97 37 M 97 35 L 97 31 M 97 31 M 97 29 L 97 25 M 97 25 M 97 23 L 97 19 M 97 19 M 97 17 L 97 13 M 97 13 M 97 11 L 97 7 M 97 7 M 97 5 L 97 2.25 L 95.75 2.25 M 95.75 2.25 M 93.75 2.25 L 89.75 2.25 M 89.75 2.25 M 87.75 2.25 L 83.75 2.25 M 83.75 2.25 M 81.75 2.25 L 77.75 2.25 M 77.75 2.25 M 75.75 2.25 L 71.75 2.25 M 71.75 2.25 M 69.75 2.25 L 65.75 2.25 M 65.75 2.25 M 63.75 2.25 L 59.75 2.25 M 59.75 2.25 M 57.75 2.25 L 53.75 2.25 M 53.75 2.25 M 51.75 2.25 L 47.75 2.25 M 47.75 2.25 M 45.75 2.25 L 41.75 2.25 M 41.75 2.25 M 39.75 2.25 L 35.75 2.25 M 35.75 2.25 M 33.75 2.25 L 29.75 2.25 M 29.75 2.25 M 27.75 2.25 L 23.75 2.25 M 23.75 2.25 M 21.75 2.25 L 17.75 2.25 M 17.75 2.25 M 15.75 2.25 L 11.75 2.25 M 11.75 2.25 M 9.75 2.25 L 5.75 2.25 M 5.75 2.25 M 3.75 2.25 L 3 2.25 Z" stroke-miterlimit="10" stroke-width="2" opacity="0"></path></g></g></g></g></g><g transform="scale(1,1) matrix(1,0,0,1,962,230) translate(2,2.5)"><text fill="#000000" stroke="none" font-family="Arial" font-size="12px" font-style="normal" font-weight="normal" text-decoration="none" x="11" y="11">Seder Order </text><text fill="#000000" stroke="none" font-family="Arial" font-size="12px" font-style="normal" font-weight="normal" text-decoration="none" x="20" y="25">(Browser </text><text fill="#000000" stroke="none" font-family="Arial" font-size="12px" font-style="normal" font-weight="normal" text-decoration="none" x="18" y="39">Webview; </text><text fill="#000000" stroke="none" font-family="Arial" font-size="12px" font-style="normal" font-weight="normal" text-decoration="none" x="23" y="53">multiple </text><text fill="#000000" stroke="none" font-family="Arial" font-size="12px" font-style="normal" font-weight="normal" text-decoration="none" x="22.5" y="67">sources)</text></g><g transform="translate(0,0) matrix(1,0,0,1,960,330)"><g><g transform="translate(0,0) scale(1,0.75)"><g><path fill="#FFFFFF" stroke="none" d="M 0 0 L 100 0 Q 100 0 100 0 L 100 100 Q 100 100 100 100 L 0 100 Q 0 100 0 100 L 0 0 Q 0 0 0 0 Z"></path><g transform="scale(1,1.3333333333333333)"><path fill="none" stroke="#333333" d="M 0 0 L 100 0 Q 100 0 100 0 L 100 75 Q 100 75 100 75 L 0 75 Q 0 75 0 75 L 0 0 Q 0 0 0 0 Z" stroke-miterlimit="10" stroke-width="2"></path></g></g><g><g transform="scale(1,1.3333333333333333)"><path fill="rgb(0,0,0)" stroke="none" d="M 2 1.5 L 2 72.75 L 97 72.75 L 97 2.25 L 3 2.25 Z" fill-opacity="0" opacity="0"></path><path fill="none" stroke="#3C7626" d="M 2 1.5 M 2 1.5 L 2 5.5 M 2 5.5 M 2 7.5 L 2 11.5 M 2 11.5 M 2 13.5 L 2 17.5 M 2 17.5 M 2 19.5 L 2 23.5 M 2 23.5 M 2 25.5 L 2 29.5 M 2 29.5 M 2 31.5 L 2 35.5 M 2 35.5 M 2 37.5 L 2 41.5 M 2 41.5 M 2 43.5 L 2 47.5 M 2 47.5 M 2 49.5 L 2 53.5 M 2 53.5 M 2 55.5 L 2 59.5 M 2 59.5 M 2 61.5 L 2 65.5 M 2 65.5 M 2 67.5 L 2 71.5 M 2 71.5 M 2.75 72.75 L 6.75 72.75 M 6.75 72.75 M 8.75 72.75 L 12.75 72.75 M 12.75 72.75 M 14.75 72.75 L 18.75 72.75 M 18.75 72.75 M 20.75 72.75 L 24.75 72.75 M 24.75 72.75 M 26.75 72.75 L 30.75 72.75 M 30.75 72.75 M 32.75 72.75 L 36.75 72.75 M 36.75 72.75 M 38.75 72.75 L 42.75 72.75 M 42.75 72.75 M 44.75 72.75 L 48.75 72.75 M 48.75 72.75 M 50.75 72.75 L 54.75 72.75 M 54.75 72.75 M 56.75 72.75 L 60.75 72.75 M 60.75 72.75 M 62.75 72.75 L 66.75 72.75 M 66.75 72.75 M 68.75 72.75 L 72.75 72.75 M 72.75 72.75 M 74.75 72.75 L 78.75 72.75 M 78.75 72.75 M 80.75 72.75 L 84.75 72.75 M 84.75 72.75 M 86.75 72.75 L 90.75 72.75 M 90.75 72.75 M 92.75 72.75 L 96.75 72.75 M 96.75 72.75 M 97 71 L 97 67 M 97 67 M 97 65 L 97 61 M 97 61 M 97 59 L 97 55 M 97 55 M 97 53 L 97 49 M 97 49 M 97 47 L 97 43 M 97 43 M 97 41 L 97 37 M 97 37 M 97 35 L 97 31 M 97 31 M 97 29 L 97 25 M 97 25 M 97 23 L 97 19 M 97 19 M 97 17 L 97 13 M 97 13 M 97 11 L 97 7 M 97 7 M 97 5 L 97 2.25 L 95.75 2.25 M 95.75 2.25 M 93.75 2.25 L 89.75 2.25 M 89.75 2.25 M 87.75 2.25 L 83.75 2.25 M 83.75 2.25 M 81.75 2.25 L 77.75 2.25 M 77.75 2.25 M 75.75 2.25 L 71.75 2.25 M 71.75 2.25 M 69.75 2.25 L 65.75 2.25 M 65.75 2.25 M 63.75 2.25 L 59.75 2.25 M 59.75 2.25 M 57.75 2.25 L 53.75 2.25 M 53.75 2.25 M 51.75 2.25 L 47.75 2.25 M 47.75 2.25 M 45.75 2.25 L 41.75 2.25 M 41.75 2.25 M 39.75 2.25 L 35.75 2.25 M 35.75 2.25 M 33.75 2.25 L 29.75 2.25 M 29.75 2.25 M 27.75 2.25 L 23.75 2.25 M 23.75 2.25 M 21.75 2.25 L 17.75 2.25 M 17.75 2.25 M 15.75 2.25 L 11.75 2.25 M 11.75 2.25 M 9.75 2.25 L 5.75 2.25 M 5.75 2.25 M 3.75 2.25 L 3 2.25 Z" stroke-miterlimit="10" stroke-width="2" opacity="0"></path></g></g></g></g></g><g transform="scale(1,1) matrix(1,0,0,1,962,330) translate(2,30.5)"><text fill="#000000" stroke="none" font-family="Arial" font-size="12px" font-style="normal" font-weight="normal" text-decoration="none" x="32" y="11">Food</text></g><g transform="translate(0,0) matrix(1,0,0,1,959.9999999999999,555)"><g><g transform="translate(0,0) scale(1,0.75)"><g><path fill="#FFFFFF" stroke="none" d="M 0 0 L 100 0 Q 100 0 100 0 L 100 100 Q 100 100 100 100 L 0 100 Q 0 100 0 100 L 0 0 Q 0 0 0 0 Z"></path><g transform="scale(1,1.3333333333333333)"><path fill="none" stroke="#333333" d="M 0 0 L 100 0 Q 100 0 100 0 L 100 75 Q 100 75 100 75 L 0 75 Q 0 75 0 75 L 0 0 Q 0 0 0 0 Z" stroke-miterlimit="10" stroke-width="2"></path></g></g><g><g transform="scale(1,1.3333333333333333)"><path fill="rgb(0,0,0)" stroke="none" d="M 2 1.5 L 2 72.75 L 97 72.75 L 97 2.25 L 3 2.25 Z" fill-opacity="0" opacity="0"></path><path fill="none" stroke="#3C7626" d="M 2 1.5 M 2 1.5 L 2 5.5 M 2 5.5 M 2 7.5 L 2 11.5 M 2 11.5 M 2 13.5 L 2 17.5 M 2 17.5 M 2 19.5 L 2 23.5 M 2 23.5 M 2 25.5 L 2 29.5 M 2 29.5 M 2 31.5 L 2 35.5 M 2 35.5 M 2 37.5 L 2 41.5 M 2 41.5 M 2 43.5 L 2 47.5 M 2 47.5 M 2 49.5 L 2 53.5 M 2 53.5 M 2 55.5 L 2 59.5 M 2 59.5 M 2 61.5 L 2 65.5 M 2 65.5 M 2 67.5 L 2 71.5 M 2 71.5 M 2.75 72.75 L 6.75 72.75 M 6.75 72.75 M 8.75 72.75 L 12.75 72.75 M 12.75 72.75 M 14.75 72.75 L 18.75 72.75 M 18.75 72.75 M 20.75 72.75 L 24.75 72.75 M 24.75 72.75 M 26.75 72.75 L 30.75 72.75 M 30.75 72.75 M 32.75 72.75 L 36.75 72.75 M 36.75 72.75 M 38.75 72.75 L 42.75 72.75 M 42.75 72.75 M 44.75 72.75 L 48.75 72.75 M 48.75 72.75 M 50.75 72.75 L 54.75 72.75 M 54.75 72.75 M 56.75 72.75 L 60.75 72.75 M 60.75 72.75 M 62.75 72.75 L 66.75 72.75 M 66.75 72.75 M 68.75 72.75 L 72.75 72.75 M 72.75 72.75 M 74.75 72.75 L 78.75 72.75 M 78.75 72.75 M 80.75 72.75 L 84.75 72.75 M 84.75 72.75 M 86.75 72.75 L 90.75 72.75 M 90.75 72.75 M 92.75 72.75 L 96.75 72.75 M 96.75 72.75 M 97 71 L 97 67 M 97 67 M 97 65 L 97 61 M 97 61 M 97 59 L 97 55 M 97 55 M 97 53 L 97 49 M 97 49 M 97 47 L 97 43 M 97 43 M 97 41 L 97 37 M 97 37 M 97 35 L 97 31 M 97 31 M 97 29 L 97 25 M 97 25 M 97 23 L 97 19 M 97 19 M 97 17 L 97 13 M 97 13 M 97 11 L 97 7 M 97 7 M 97 5 L 97 2.25 L 95.75 2.25 M 95.75 2.25 M 93.75 2.25 L 89.75 2.25 M 89.75 2.25 M 87.75 2.25 L 83.75 2.25 M 83.75 2.25 M 81.75 2.25 L 77.75 2.25 M 77.75 2.25 M 75.75 2.25 L 71.75 2.25 M 71.75 2.25 M 69.75 2.25 L 65.75 2.25 M 65.75 2.25 M 63.75 2.25 L 59.75 2.25 M 59.75 2.25 M 57.75 2.25 L 53.75 2.25 M 53.75 2.25 M 51.75 2.25 L 47.75 2.25 M 47.75 2.25 M 45.75 2.25 L 41.75 2.25 M 41.75 2.25 M 39.75 2.25 L 35.75 2.25 M 35.75 2.25 M 33.75 2.25 L 29.75 2.25 M 29.75 2.25 M 27.75 2.25 L 23.75 2.25 M 23.75 2.25 M 21.75 2.25 L 17.75 2.25 M 17.75 2.25 M 15.75 2.25 L 11.75 2.25 M 11.75 2.25 M 9.75 2.25 L 5.75 2.25 M 5.75 2.25 M 3.75 2.25 L 3 2.25 Z" stroke-miterlimit="10" stroke-width="2" opacity="0"></path></g></g></g></g></g><g transform="scale(1,1) matrix(1,0,0,1,961.9999999999999,555) translate(2,2.5)"><text fill="#000000" stroke="none" font-family="Arial" font-size="12px" font-style="normal" font-weight="normal" text-decoration="none" x="15.5" y="11">Haggadah </text><text fill="#000000" stroke="none" font-family="Arial" font-size="12px" font-style="normal" font-weight="normal" text-decoration="none" x="20" y="25">(Browser </text><text fill="#000000" stroke="none" font-family="Arial" font-size="12px" font-style="normal" font-weight="normal" text-decoration="none" x="18" y="39">Webview; </text><text fill="#000000" stroke="none" font-family="Arial" font-size="12px" font-style="normal" font-weight="normal" text-decoration="none" x="23" y="53">multiple </text><text fill="#000000" stroke="none" font-family="Arial" font-size="12px" font-style="normal" font-weight="normal" text-decoration="none" x="22.5" y="67">sources)</text></g><g transform="matrix(1,0,0,1,935.2762515838433,165.5)"><g transform="translate(0,0)"><g transform="translate(-964,-171) translate(28.723748416156695,5.5) matrix(1,0,0,1,0,0)"><g><path fill="none" stroke="#000000" d="M 960 267.5 L 949.7762515838433 267.5 Q 939.7762515838433 267.5 939.7762515838433 257.5 L 939.7762515838433 170" stroke-miterlimit="10" stroke-width="2"></path></g></g></g></g><g transform="matrix(1,0,0,1,925.5,165.5)"><g transform="translate(0,0)"><g transform="translate(-930,-189) translate(4.5,23.5) matrix(1,0,0,1,0,0)"><g><path fill="none" stroke="#000000" d="M 930 170 L 935 170 Q 940 170 945 170 L 945 170 Q 950 170 955 170 L 960 170" stroke-miterlimit="10" stroke-width="2"></path></g></g></g></g><g transform="matrix(1,0,0,1,925.5,165.5)"><g transform="translate(0,0)"><g transform="translate(-960,-367) translate(34.5,201.5) matrix(1,0,0,1,0,0)"><g><path fill="none" stroke="#000000" d="M 960 367.5 L 952.5 367.5 Q 945 367.5 945 357.5 L 945 180 Q 945 170 937.5 170 L 930 170" stroke-miterlimit="10" stroke-width="2"></path></g></g></g></g><g transform="matrix(1,0,0,1,795.5,165.5)"><g transform="translate(0,0)"><g transform="translate(-964,-472) translate(168.5,306.5) matrix(1,0,0,1,0,0)"><g><path fill="none" stroke="#000000" d="M 800 170 L 805 170 Q 810 170 815 170 L 815 170 Q 820 170 825 170 L 830 170" stroke-miterlimit="10" stroke-width="2"></path></g></g></g></g><g transform="matrix(1,0,0,1,925.5,165.5)"><g transform="translate(0,0)"><g transform="translate(-954,-571) translate(28.5,405.5) matrix(1,0,0,1,0,0)"><g><path fill="none" stroke="#000000" d="M 959.9999999999999 592.5 L 952.4999999999999 592.5 Q 945 592.5 945 582.5 L 945 180 Q 945 170 937.5 170 L 930 170" stroke-miterlimit="10" stroke-width="2"></path></g></g></g></g><g transform="matrix(1,0,0,1,875.5,100.5)"><g transform="translate(0,0)"><g transform="translate(-881,-106) translate(5.5,5.5) matrix(1,0,0,1,0,0)"><g><path fill="none" stroke="#000000" d="M 880 105 L 880 109.58333333333334 Q 880 114.16666666666667 880 118.75 L 880 118.75 Q 880 123.33333333333333 880 127.91666666666666 L 880 132.5" stroke-miterlimit="10" stroke-width="2"></path></g></g></g></g><g transform="translate(0,0) matrix(1,0,0,1,1090,170)"><g><g transform="translate(0,0) scale(1,0.75)"><g><path fill="#FFFFFF" stroke="none" d="M 0 0 L 100 0 Q 100 0 100 0 L 100 100 Q 100 100 100 100 L 0 100 Q 0 100 0 100 L 0 0 Q 0 0 0 0 Z"></path><g transform="scale(1,1.3333333333333333)"><path fill="none" stroke="#333333" d="M 0 0 L 100 0 Q 100 0 100 0 L 100 75 Q 100 75 100 75 L 0 75 Q 0 75 0 75 L 0 0 Q 0 0 0 0 Z" stroke-miterlimit="10" stroke-width="2"></path></g></g><g><g transform="scale(1,1.3333333333333333)"><path fill="rgb(0,0,0)" stroke="none" d="M 2 1.5 L 2 72.75 L 97 72.75 L 97 2.25 L 3 2.25 Z" fill-opacity="0" opacity="0"></path><path fill="none" stroke="#3C7626" d="M 2 1.5 M 2 1.5 L 2 5.5 M 2 5.5 M 2 7.5 L 2 11.5 M 2 11.5 M 2 13.5 L 2 17.5 M 2 17.5 M 2 19.5 L 2 23.5 M 2 23.5 M 2 25.5 L 2 29.5 M 2 29.5 M 2 31.5 L 2 35.5 M 2 35.5 M 2 37.5 L 2 41.5 M 2 41.5 M 2 43.5 L 2 47.5 M 2 47.5 M 2 49.5 L 2 53.5 M 2 53.5 M 2 55.5 L 2 59.5 M 2 59.5 M 2 61.5 L 2 65.5 M 2 65.5 M 2 67.5 L 2 71.5 M 2 71.5 M 2.75 72.75 L 6.75 72.75 M 6.75 72.75 M 8.75 72.75 L 12.75 72.75 M 12.75 72.75 M 14.75 72.75 L 18.75 72.75 M 18.75 72.75 M 20.75 72.75 L 24.75 72.75 M 24.75 72.75 M 26.75 72.75 L 30.75 72.75 M 30.75 72.75 M 32.75 72.75 L 36.75 72.75 M 36.75 72.75 M 38.75 72.75 L 42.75 72.75 M 42.75 72.75 M 44.75 72.75 L 48.75 72.75 M 48.75 72.75 M 50.75 72.75 L 54.75 72.75 M 54.75 72.75 M 56.75 72.75 L 60.75 72.75 M 60.75 72.75 M 62.75 72.75 L 66.75 72.75 M 66.75 72.75 M 68.75 72.75 L 72.75 72.75 M 72.75 72.75 M 74.75 72.75 L 78.75 72.75 M 78.75 72.75 M 80.75 72.75 L 84.75 72.75 M 84.75 72.75 M 86.75 72.75 L 90.75 72.75 M 90.75 72.75 M 92.75 72.75 L 96.75 72.75 M 96.75 72.75 M 97 71 L 97 67 M 97 67 M 97 65 L 97 61 M 97 61 M 97 59 L 97 55 M 97 55 M 97 53 L 97 49 M 97 49 M 97 47 L 97 43 M 97 43 M 97 41 L 97 37 M 97 37 M 97 35 L 97 31 M 97 31 M 97 29 L 97 25 M 97 25 M 97 23 L 97 19 M 97 19 M 97 17 L 97 13 M 97 13 M 97 11 L 97 7 M 97 7 M 97 5 L 97 2.25 L 95.75 2.25 M 95.75 2.25 M 93.75 2.25 L 89.75 2.25 M 89.75 2.25 M 87.75 2.25 L 83.75 2.25 M 83.75 2.25 M 81.75 2.25 L 77.75 2.25 M 77.75 2.25 M 75.75 2.25 L 71.75 2.25 M 71.75 2.25 M 69.75 2.25 L 65.75 2.25 M 65.75 2.25 M 63.75 2.25 L 59.75 2.25 M 59.75 2.25 M 57.75 2.25 L 53.75 2.25 M 53.75 2.25 M 51.75 2.25 L 47.75 2.25 M 47.75 2.25 M 45.75 2.25 L 41.75 2.25 M 41.75 2.25 M 39.75 2.25 L 35.75 2.25 M 35.75 2.25 M 33.75 2.25 L 29.75 2.25 M 29.75 2.25 M 27.75 2.25 L 23.75 2.25 M 23.75 2.25 M 21.75 2.25 L 17.75 2.25 M 17.75 2.25 M 15.75 2.25 L 11.75 2.25 M 11.75 2.25 M 9.75 2.25 L 5.75 2.25 M 5.75 2.25 M 3.75 2.25 L 3 2.25 Z" stroke-miterlimit="10" stroke-width="2" opacity="0"></path></g></g></g></g></g><g transform="scale(1,1) matrix(1,0,0,1,1092,170) translate(2,30.5)"><text fill="#000000" stroke="none" font-family="Arial" font-size="12px" font-style="normal" font-weight="normal" text-decoration="none" x="25" y="11">Prayers</text></g><g transform="translate(0,0) matrix(1,0,0,1,1230,170)"><g><g transform="translate(0,0) scale(1,0.75)"><g><path fill="#FFFFFF" stroke="none" d="M 0 0 L 100 0 Q 100 0 100 0 L 100 100 Q 100 100 100 100 L 0 100 Q 0 100 0 100 L 0 0 Q 0 0 0 0 Z"></path><g transform="scale(1,1.3333333333333333)"><path fill="none" stroke="#333333" d="M 0 0 L 100 0 Q 100 0 100 0 L 100 75 Q 100 75 100 75 L 0 75 Q 0 75 0 75 L 0 0 Q 0 0 0 0 Z" stroke-miterlimit="10" stroke-width="2"></path></g></g><g><g transform="scale(1,1.3333333333333333)"><path fill="rgb(0,0,0)" stroke="none" d="M 2 1.5 L 2 72.75 L 97 72.75 L 97 2.25 L 3 2.25 Z" fill-opacity="0" opacity="0"></path><path fill="none" stroke="#3C7626" d="M 2 1.5 M 2 1.5 L 2 5.5 M 2 5.5 M 2 7.5 L 2 11.5 M 2 11.5 M 2 13.5 L 2 17.5 M 2 17.5 M 2 19.5 L 2 23.5 M 2 23.5 M 2 25.5 L 2 29.5 M 2 29.5 M 2 31.5 L 2 35.5 M 2 35.5 M 2 37.5 L 2 41.5 M 2 41.5 M 2 43.5 L 2 47.5 M 2 47.5 M 2 49.5 L 2 53.5 M 2 53.5 M 2 55.5 L 2 59.5 M 2 59.5 M 2 61.5 L 2 65.5 M 2 65.5 M 2 67.5 L 2 71.5 M 2 71.5 M 2.75 72.75 L 6.75 72.75 M 6.75 72.75 M 8.75 72.75 L 12.75 72.75 M 12.75 72.75 M 14.75 72.75 L 18.75 72.75 M 18.75 72.75 M 20.75 72.75 L 24.75 72.75 M 24.75 72.75 M 26.75 72.75 L 30.75 72.75 M 30.75 72.75 M 32.75 72.75 L 36.75 72.75 M 36.75 72.75 M 38.75 72.75 L 42.75 72.75 M 42.75 72.75 M 44.75 72.75 L 48.75 72.75 M 48.75 72.75 M 50.75 72.75 L 54.75 72.75 M 54.75 72.75 M 56.75 72.75 L 60.75 72.75 M 60.75 72.75 M 62.75 72.75 L 66.75 72.75 M 66.75 72.75 M 68.75 72.75 L 72.75 72.75 M 72.75 72.75 M 74.75 72.75 L 78.75 72.75 M 78.75 72.75 M 80.75 72.75 L 84.75 72.75 M 84.75 72.75 M 86.75 72.75 L 90.75 72.75 M 90.75 72.75 M 92.75 72.75 L 96.75 72.75 M 96.75 72.75 M 97 71 L 97 67 M 97 67 M 97 65 L 97 61 M 97 61 M 97 59 L 97 55 M 97 55 M 97 53 L 97 49 M 97 49 M 97 47 L 97 43 M 97 43 M 97 41 L 97 37 M 97 37 M 97 35 L 97 31 M 97 31 M 97 29 L 97 25 M 97 25 M 97 23 L 97 19 M 97 19 M 97 17 L 97 13 M 97 13 M 97 11 L 97 7 M 97 7 M 97 5 L 97 2.25 L 95.75 2.25 M 95.75 2.25 M 93.75 2.25 L 89.75 2.25 M 89.75 2.25 M 87.75 2.25 L 83.75 2.25 M 83.75 2.25 M 81.75 2.25 L 77.75 2.25 M 77.75 2.25 M 75.75 2.25 L 71.75 2.25 M 71.75 2.25 M 69.75 2.25 L 65.75 2.25 M 65.75 2.25 M 63.75 2.25 L 59.75 2.25 M 59.75 2.25 M 57.75 2.25 L 53.75 2.25 M 53.75 2.25 M 51.75 2.25 L 47.75 2.25 M 47.75 2.25 M 45.75 2.25 L 41.75 2.25 M 41.75 2.25 M 39.75 2.25 L 35.75 2.25 M 35.75 2.25 M 33.75 2.25 L 29.75 2.25 M 29.75 2.25 M 27.75 2.25 L 23.75 2.25 M 23.75 2.25 M 21.75 2.25 L 17.75 2.25 M 17.75 2.25 M 15.75 2.25 L 11.75 2.25 M 11.75 2.25 M 9.75 2.25 L 5.75 2.25 M 5.75 2.25 M 3.75 2.25 L 3 2.25 Z" stroke-miterlimit="10" stroke-width="2" opacity="0"></path></g></g></g></g></g><g transform="scale(1,1) matrix(1,0,0,1,1232,170) translate(2,30.5)"><text fill="#000000" stroke="none" font-family="Arial" font-size="12px" font-style="normal" font-weight="normal" text-decoration="none" x="28.5" y="11">Songs</text></g><g transform="translate(0,0) matrix(1,0,0,1,1370,170)"><g><g transform="translate(0,0) scale(1,0.75)"><g><path fill="#FFFFFF" stroke="none" d="M 0 0 L 100 0 Q 100 0 100 0 L 100 100 Q 100 100 100 100 L 0 100 Q 0 100 0 100 L 0 0 Q 0 0 0 0 Z"></path><g transform="scale(1,1.3333333333333333)"><path fill="none" stroke="#333333" d="M 0 0 L 100 0 Q 100 0 100 0 L 100 75 Q 100 75 100 75 L 0 75 Q 0 75 0 75 L 0 0 Q 0 0 0 0 Z" stroke-miterlimit="10" stroke-width="2"></path></g></g><g><g transform="scale(1,1.3333333333333333)"><path fill="rgb(0,0,0)" stroke="none" d="M 2 1.5 L 2 72.75 L 97 72.75 L 97 2.25 L 3 2.25 Z" fill-opacity="0" opacity="0"></path><path fill="none" stroke="#3C7626" d="M 2 1.5 M 2 1.5 L 2 5.5 M 2 5.5 M 2 7.5 L 2 11.5 M 2 11.5 M 2 13.5 L 2 17.5 M 2 17.5 M 2 19.5 L 2 23.5 M 2 23.5 M 2 25.5 L 2 29.5 M 2 29.5 M 2 31.5 L 2 35.5 M 2 35.5 M 2 37.5 L 2 41.5 M 2 41.5 M 2 43.5 L 2 47.5 M 2 47.5 M 2 49.5 L 2 53.5 M 2 53.5 M 2 55.5 L 2 59.5 M 2 59.5 M 2 61.5 L 2 65.5 M 2 65.5 M 2 67.5 L 2 71.5 M 2 71.5 M 2.75 72.75 L 6.75 72.75 M 6.75 72.75 M 8.75 72.75 L 12.75 72.75 M 12.75 72.75 M 14.75 72.75 L 18.75 72.75 M 18.75 72.75 M 20.75 72.75 L 24.75 72.75 M 24.75 72.75 M 26.75 72.75 L 30.75 72.75 M 30.75 72.75 M 32.75 72.75 L 36.75 72.75 M 36.75 72.75 M 38.75 72.75 L 42.75 72.75 M 42.75 72.75 M 44.75 72.75 L 48.75 72.75 M 48.75 72.75 M 50.75 72.75 L 54.75 72.75 M 54.75 72.75 M 56.75 72.75 L 60.75 72.75 M 60.75 72.75 M 62.75 72.75 L 66.75 72.75 M 66.75 72.75 M 68.75 72.75 L 72.75 72.75 M 72.75 72.75 M 74.75 72.75 L 78.75 72.75 M 78.75 72.75 M 80.75 72.75 L 84.75 72.75 M 84.75 72.75 M 86.75 72.75 L 90.75 72.75 M 90.75 72.75 M 92.75 72.75 L 96.75 72.75 M 96.75 72.75 M 97 71 L 97 67 M 97 67 M 97 65 L 97 61 M 97 61 M 97 59 L 97 55 M 97 55 M 97 53 L 97 49 M 97 49 M 97 47 L 97 43 M 97 43 M 97 41 L 97 37 M 97 37 M 97 35 L 97 31 M 97 31 M 97 29 L 97 25 M 97 25 M 97 23 L 97 19 M 97 19 M 97 17 L 97 13 M 97 13 M 97 11 L 97 7 M 97 7 M 97 5 L 97 2.25 L 95.75 2.25 M 95.75 2.25 M 93.75 2.25 L 89.75 2.25 M 89.75 2.25 M 87.75 2.25 L 83.75 2.25 M 83.75 2.25 M 81.75 2.25 L 77.75 2.25 M 77.75 2.25 M 75.75 2.25 L 71.75 2.25 M 71.75 2.25 M 69.75 2.25 L 65.75 2.25 M 65.75 2.25 M 63.75 2.25 L 59.75 2.25 M 59.75 2.25 M 57.75 2.25 L 53.75 2.25 M 53.75 2.25 M 51.75 2.25 L 47.75 2.25 M 47.75 2.25 M 45.75 2.25 L 41.75 2.25 M 41.75 2.25 M 39.75 2.25 L 35.75 2.25 M 35.75 2.25 M 33.75 2.25 L 29.75 2.25 M 29.75 2.25 M 27.75 2.25 L 23.75 2.25 M 23.75 2.25 M 21.75 2.25 L 17.75 2.25 M 17.75 2.25 M 15.75 2.25 L 11.75 2.25 M 11.75 2.25 M 9.75 2.25 L 5.75 2.25 M 5.75 2.25 M 3.75 2.25 L 3 2.25 Z" stroke-miterlimit="10" stroke-width="2" opacity="0"></path></g></g></g></g></g><g transform="scale(1,1) matrix(1,0,0,1,1372,170) translate(2,30.5)"><text fill="#000000" stroke="none" font-family="Arial" font-size="12px" font-style="normal" font-weight="normal" text-decoration="none" x="25.5" y="11">Service</text></g><g transform="translate(0,0) matrix(1,0,0,1,1510,170)"><g><g transform="translate(0,0) scale(1,0.75)"><g><path fill="#FFFFFF" stroke="none" d="M 0 0 L 100 0 Q 100 0 100 0 L 100 100 Q 100 100 100 100 L 0 100 Q 0 100 0 100 L 0 0 Q 0 0 0 0 Z"></path><g transform="scale(1,1.3333333333333333)"><path fill="none" stroke="#333333" d="M 0 0 L 100 0 Q 100 0 100 0 L 100 75 Q 100 75 100 75 L 0 75 Q 0 75 0 75 L 0 0 Q 0 0 0 0 Z" stroke-miterlimit="10" stroke-width="2"></path></g></g><g><g transform="scale(1,1.3333333333333333)"><path fill="rgb(0,0,0)" stroke="none" d="M 2 1.5 L 2 72.75 L 97 72.75 L 97 2.25 L 3 2.25 Z" fill-opacity="0" opacity="0"></path><path fill="none" stroke="#3C7626" d="M 2 1.5 M 2 1.5 L 2 5.5 M 2 5.5 M 2 7.5 L 2 11.5 M 2 11.5 M 2 13.5 L 2 17.5 M 2 17.5 M 2 19.5 L 2 23.5 M 2 23.5 M 2 25.5 L 2 29.5 M 2 29.5 M 2 31.5 L 2 35.5 M 2 35.5 M 2 37.5 L 2 41.5 M 2 41.5 M 2 43.5 L 2 47.5 M 2 47.5 M 2 49.5 L 2 53.5 M 2 53.5 M 2 55.5 L 2 59.5 M 2 59.5 M 2 61.5 L 2 65.5 M 2 65.5 M 2 67.5 L 2 71.5 M 2 71.5 M 2.75 72.75 L 6.75 72.75 M 6.75 72.75 M 8.75 72.75 L 12.75 72.75 M 12.75 72.75 M 14.75 72.75 L 18.75 72.75 M 18.75 72.75 M 20.75 72.75 L 24.75 72.75 M 24.75 72.75 M 26.75 72.75 L 30.75 72.75 M 30.75 72.75 M 32.75 72.75 L 36.75 72.75 M 36.75 72.75 M 38.75 72.75 L 42.75 72.75 M 42.75 72.75 M 44.75 72.75 L 48.75 72.75 M 48.75 72.75 M 50.75 72.75 L 54.75 72.75 M 54.75 72.75 M 56.75 72.75 L 60.75 72.75 M 60.75 72.75 M 62.75 72.75 L 66.75 72.75 M 66.75 72.75 M 68.75 72.75 L 72.75 72.75 M 72.75 72.75 M 74.75 72.75 L 78.75 72.75 M 78.75 72.75 M 80.75 72.75 L 84.75 72.75 M 84.75 72.75 M 86.75 72.75 L 90.75 72.75 M 90.75 72.75 M 92.75 72.75 L 96.75 72.75 M 96.75 72.75 M 97 71 L 97 67 M 97 67 M 97 65 L 97 61 M 97 61 M 97 59 L 97 55 M 97 55 M 97 53 L 97 49 M 97 49 M 97 47 L 97 43 M 97 43 M 97 41 L 97 37 M 97 37 M 97 35 L 97 31 M 97 31 M 97 29 L 97 25 M 97 25 M 97 23 L 97 19 M 97 19 M 97 17 L 97 13 M 97 13 M 97 11 L 97 7 M 97 7 M 97 5 L 97 2.25 L 95.75 2.25 M 95.75 2.25 M 93.75 2.25 L 89.75 2.25 M 89.75 2.25 M 87.75 2.25 L 83.75 2.25 M 83.75 2.25 M 81.75 2.25 L 77.75 2.25 M 77.75 2.25 M 75.75 2.25 L 71.75 2.25 M 71.75 2.25 M 69.75 2.25 L 65.75 2.25 M 65.75 2.25 M 63.75 2.25 L 59.75 2.25 M 59.75 2.25 M 57.75 2.25 L 53.75 2.25 M 53.75 2.25 M 51.75 2.25 L 47.75 2.25 M 47.75 2.25 M 45.75 2.25 L 41.75 2.25 M 41.75 2.25 M 39.75 2.25 L 35.75 2.25 M 35.75 2.25 M 33.75 2.25 L 29.75 2.25 M 29.75 2.25 M 27.75 2.25 L 23.75 2.25 M 23.75 2.25 M 21.75 2.25 L 17.75 2.25 M 17.75 2.25 M 15.75 2.25 L 11.75 2.25 M 11.75 2.25 M 9.75 2.25 L 5.75 2.25 M 5.75 2.25 M 3.75 2.25 L 3 2.25 Z" stroke-miterlimit="10" stroke-width="2" opacity="0"></path></g></g></g></g></g><g transform="scale(1,1) matrix(1,0,0,1,1512,170) translate(2,30.5)"><text fill="#000000" stroke="none" font-family="Arial" font-size="12px" font-style="normal" font-weight="normal" text-decoration="none" x="8.5" y="11">Sound Effects</text></g><g transform="matrix(1,0,0,1,1055.5,149.96699141100893)"><g transform="translate(0,0)"><g transform="translate(-1058.3406593406594,-156.8131868131868) translate(2.8406593406593856,6.8461954021778695) matrix(1,0,0,1,0,0)"><g><path fill="none" stroke="#000000" d="M 1060 154.46699141100893 L 1130 154.46699141100893 Q 1140 154.46699141100893 1140 162.23349570550448 L 1140 170" stroke-miterlimit="10" stroke-width="2"></path></g></g></g></g><g transform="matrix(1,0,0,1,1055.5,153.66483516483515)"><g transform="translate(0,0)"><g transform="translate(-1275.956043956044,-175.7362637362637) translate(220.4560439560439,22.071428571428555) matrix(1,0,0,1,0,0)"><g><path fill="none" stroke="#000000" d="M 1280 170 L 1280 164.08241758241758 Q 1280 158.16483516483515 1270 158.16483516483515 L 1060 158.16483516483515" stroke-miterlimit="10" stroke-width="2"></path></g></g></g></g><g transform="matrix(1,0,0,1,1055.5,149.96699141100893)"><g transform="translate(0,0)"><g transform="translate(-1417.8791208791208,-175.7362637362637) translate(362.3791208791208,25.769272325254775) matrix(1,0,0,1,0,0)"><g><path fill="none" stroke="#000000" d="M 1420 170 L 1420 162.23349570550448 Q 1420 154.46699141100893 1410 154.46699141100893 L 1060 154.46699141100893" stroke-miterlimit="10" stroke-width="2"></path></g></g></g></g><g transform="matrix(1,0,0,1,1055.5,149.96699141100893)"><g transform="translate(0,0)"><g transform="translate(-1553.043956043956,-170.3296703296703) translate(497.5439560439561,20.362678918661373) matrix(1,0,0,1,0,0)"><g><path fill="none" stroke="#000000" d="M 1560 170 L 1560 162.23349570550448 Q 1560 154.46699141100893 1550 154.46699141100893 L 1060 154.46699141100893" stroke-miterlimit="10" stroke-width="2"></path></g></g></g></g><g transform="translate(0,0) matrix(1,0,0,1,1090,280)"><g><g transform="translate(0,0) scale(1,0.75)"><g><path fill="#FFFFFF" stroke="none" d="M 0 0 L 100 0 Q 100 0 100 0 L 100 100 Q 100 100 100 100 L 0 100 Q 0 100 0 100 L 0 0 Q 0 0 0 0 Z"></path><g transform="scale(1,1.3333333333333333)"><path fill="none" stroke="#333333" d="M 0 0 L 100 0 Q 100 0 100 0 L 100 75 Q 100 75 100 75 L 0 75 Q 0 75 0 75 L 0 0 Q 0 0 0 0 Z" stroke-miterlimit="10" stroke-width="2"></path></g></g><g><g transform="scale(1,1.3333333333333333)"><path fill="rgb(0,0,0)" stroke="none" d="M 2 1.5 L 2 72.75 L 97 72.75 L 97 2.25 L 3 2.25 Z" fill-opacity="0" opacity="0"></path><path fill="none" stroke="#3C7626" d="M 2 1.5 M 2 1.5 L 2 5.5 M 2 5.5 M 2 7.5 L 2 11.5 M 2 11.5 M 2 13.5 L 2 17.5 M 2 17.5 M 2 19.5 L 2 23.5 M 2 23.5 M 2 25.5 L 2 29.5 M 2 29.5 M 2 31.5 L 2 35.5 M 2 35.5 M 2 37.5 L 2 41.5 M 2 41.5 M 2 43.5 L 2 47.5 M 2 47.5 M 2 49.5 L 2 53.5 M 2 53.5 M 2 55.5 L 2 59.5 M 2 59.5 M 2 61.5 L 2 65.5 M 2 65.5 M 2 67.5 L 2 71.5 M 2 71.5 M 2.75 72.75 L 6.75 72.75 M 6.75 72.75 M 8.75 72.75 L 12.75 72.75 M 12.75 72.75 M 14.75 72.75 L 18.75 72.75 M 18.75 72.75 M 20.75 72.75 L 24.75 72.75 M 24.75 72.75 M 26.75 72.75 L 30.75 72.75 M 30.75 72.75 M 32.75 72.75 L 36.75 72.75 M 36.75 72.75 M 38.75 72.75 L 42.75 72.75 M 42.75 72.75 M 44.75 72.75 L 48.75 72.75 M 48.75 72.75 M 50.75 72.75 L 54.75 72.75 M 54.75 72.75 M 56.75 72.75 L 60.75 72.75 M 60.75 72.75 M 62.75 72.75 L 66.75 72.75 M 66.75 72.75 M 68.75 72.75 L 72.75 72.75 M 72.75 72.75 M 74.75 72.75 L 78.75 72.75 M 78.75 72.75 M 80.75 72.75 L 84.75 72.75 M 84.75 72.75 M 86.75 72.75 L 90.75 72.75 M 90.75 72.75 M 92.75 72.75 L 96.75 72.75 M 96.75 72.75 M 97 71 L 97 67 M 97 67 M 97 65 L 97 61 M 97 61 M 97 59 L 97 55 M 97 55 M 97 53 L 97 49 M 97 49 M 97 47 L 97 43 M 97 43 M 97 41 L 97 37 M 97 37 M 97 35 L 97 31 M 97 31 M 97 29 L 97 25 M 97 25 M 97 23 L 97 19 M 97 19 M 97 17 L 97 13 M 97 13 M 97 11 L 97 7 M 97 7 M 97 5 L 97 2.25 L 95.75 2.25 M 95.75 2.25 M 93.75 2.25 L 89.75 2.25 M 89.75 2.25 M 87.75 2.25 L 83.75 2.25 M 83.75 2.25 M 81.75 2.25 L 77.75 2.25 M 77.75 2.25 M 75.75 2.25 L 71.75 2.25 M 71.75 2.25 M 69.75 2.25 L 65.75 2.25 M 65.75 2.25 M 63.75 2.25 L 59.75 2.25 M 59.75 2.25 M 57.75 2.25 L 53.75 2.25 M 53.75 2.25 M 51.75 2.25 L 47.75 2.25 M 47.75 2.25 M 45.75 2.25 L 41.75 2.25 M 41.75 2.25 M 39.75 2.25 L 35.75 2.25 M 35.75 2.25 M 33.75 2.25 L 29.75 2.25 M 29.75 2.25 M 27.75 2.25 L 23.75 2.25 M 23.75 2.25 M 21.75 2.25 L 17.75 2.25 M 17.75 2.25 M 15.75 2.25 L 11.75 2.25 M 11.75 2.25 M 9.75 2.25 L 5.75 2.25 M 5.75 2.25 M 3.75 2.25 L 3 2.25 Z" stroke-miterlimit="10" stroke-width="2" opacity="0"></path></g></g></g></g></g><g transform="scale(1,1) matrix(1,0,0,1,1092,280) translate(2,30.5)"><text fill="#000000" stroke="none" font-family="Arial" font-size="12px" font-style="normal" font-weight="normal" text-decoration="none" x="30" y="11">Lyrics</text></g><g transform="translate(0,0) matrix(1,0,0,1,1230,280)"><g><g transform="translate(0,0) scale(1,0.75)"><g><path fill="#FFFFFF" stroke="none" d="M 0 0 L 100 0 Q 100 0 100 0 L 100 100 Q 100 100 100 100 L 0 100 Q 0 100 0 100 L 0 0 Q 0 0 0 0 Z"></path><g transform="scale(1,1.3333333333333333)"><path fill="none" stroke="#333333" d="M 0 0 L 100 0 Q 100 0 100 0 L 100 75 Q 100 75 100 75 L 0 75 Q 0 75 0 75 L 0 0 Q 0 0 0 0 Z" stroke-miterlimit="10" stroke-width="2"></path></g></g><g><g transform="scale(1,1.3333333333333333)"><path fill="rgb(0,0,0)" stroke="none" d="M 2 1.5 L 2 72.75 L 97 72.75 L 97 2.25 L 3 2.25 Z" fill-opacity="0" opacity="0"></path><path fill="none" stroke="#3C7626" d="M 2 1.5 M 2 1.5 L 2 5.5 M 2 5.5 M 2 7.5 L 2 11.5 M 2 11.5 M 2 13.5 L 2 17.5 M 2 17.5 M 2 19.5 L 2 23.5 M 2 23.5 M 2 25.5 L 2 29.5 M 2 29.5 M 2 31.5 L 2 35.5 M 2 35.5 M 2 37.5 L 2 41.5 M 2 41.5 M 2 43.5 L 2 47.5 M 2 47.5 M 2 49.5 L 2 53.5 M 2 53.5 M 2 55.5 L 2 59.5 M 2 59.5 M 2 61.5 L 2 65.5 M 2 65.5 M 2 67.5 L 2 71.5 M 2 71.5 M 2.75 72.75 L 6.75 72.75 M 6.75 72.75 M 8.75 72.75 L 12.75 72.75 M 12.75 72.75 M 14.75 72.75 L 18.75 72.75 M 18.75 72.75 M 20.75 72.75 L 24.75 72.75 M 24.75 72.75 M 26.75 72.75 L 30.75 72.75 M 30.75 72.75 M 32.75 72.75 L 36.75 72.75 M 36.75 72.75 M 38.75 72.75 L 42.75 72.75 M 42.75 72.75 M 44.75 72.75 L 48.75 72.75 M 48.75 72.75 M 50.75 72.75 L 54.75 72.75 M 54.75 72.75 M 56.75 72.75 L 60.75 72.75 M 60.75 72.75 M 62.75 72.75 L 66.75 72.75 M 66.75 72.75 M 68.75 72.75 L 72.75 72.75 M 72.75 72.75 M 74.75 72.75 L 78.75 72.75 M 78.75 72.75 M 80.75 72.75 L 84.75 72.75 M 84.75 72.75 M 86.75 72.75 L 90.75 72.75 M 90.75 72.75 M 92.75 72.75 L 96.75 72.75 M 96.75 72.75 M 97 71 L 97 67 M 97 67 M 97 65 L 97 61 M 97 61 M 97 59 L 97 55 M 97 55 M 97 53 L 97 49 M 97 49 M 97 47 L 97 43 M 97 43 M 97 41 L 97 37 M 97 37 M 97 35 L 97 31 M 97 31 M 97 29 L 97 25 M 97 25 M 97 23 L 97 19 M 97 19 M 97 17 L 97 13 M 97 13 M 97 11 L 97 7 M 97 7 M 97 5 L 97 2.25 L 95.75 2.25 M 95.75 2.25 M 93.75 2.25 L 89.75 2.25 M 89.75 2.25 M 87.75 2.25 L 83.75 2.25 M 83.75 2.25 M 81.75 2.25 L 77.75 2.25 M 77.75 2.25 M 75.75 2.25 L 71.75 2.25 M 71.75 2.25 M 69.75 2.25 L 65.75 2.25 M 65.75 2.25 M 63.75 2.25 L 59.75 2.25 M 59.75 2.25 M 57.75 2.25 L 53.75 2.25 M 53.75 2.25 M 51.75 2.25 L 47.75 2.25 M 47.75 2.25 M 45.75 2.25 L 41.75 2.25 M 41.75 2.25 M 39.75 2.25 L 35.75 2.25 M 35.75 2.25 M 33.75 2.25 L 29.75 2.25 M 29.75 2.25 M 27.75 2.25 L 23.75 2.25 M 23.75 2.25 M 21.75 2.25 L 17.75 2.25 M 17.75 2.25 M 15.75 2.25 L 11.75 2.25 M 11.75 2.25 M 9.75 2.25 L 5.75 2.25 M 5.75 2.25 M 3.75 2.25 L 3 2.25 Z" stroke-miterlimit="10" stroke-width="2" opacity="0"></path></g></g></g></g></g><g transform="scale(1,1) matrix(1,0,0,1,1232,280) translate(2,30.5)"><text fill="#000000" stroke="none" font-family="Arial" font-size="12px" font-style="normal" font-weight="normal" text-decoration="none" x="15.5" y="11">Translation</text></g><g transform="translate(0,0) matrix(1,0,0,1,1370,280)"><g><g transform="translate(0,0) scale(1,0.75)"><g><path fill="#FFFFFF" stroke="none" d="M 0 0 L 100 0 Q 100 0 100 0 L 100 100 Q 100 100 100 100 L 0 100 Q 0 100 0 100 L 0 0 Q 0 0 0 0 Z"></path><g transform="scale(1,1.3333333333333333)"><path fill="none" stroke="#333333" d="M 0 0 L 100 0 Q 100 0 100 0 L 100 75 Q 100 75 100 75 L 0 75 Q 0 75 0 75 L 0 0 Q 0 0 0 0 Z" stroke-miterlimit="10" stroke-width="2"></path></g></g><g><g transform="scale(1,1.3333333333333333)"><path fill="rgb(0,0,0)" stroke="none" d="M 2 1.5 L 2 72.75 L 97 72.75 L 97 2.25 L 3 2.25 Z" fill-opacity="0" opacity="0"></path><path fill="none" stroke="#3C7626" d="M 2 1.5 M 2 1.5 L 2 5.5 M 2 5.5 M 2 7.5 L 2 11.5 M 2 11.5 M 2 13.5 L 2 17.5 M 2 17.5 M 2 19.5 L 2 23.5 M 2 23.5 M 2 25.5 L 2 29.5 M 2 29.5 M 2 31.5 L 2 35.5 M 2 35.5 M 2 37.5 L 2 41.5 M 2 41.5 M 2 43.5 L 2 47.5 M 2 47.5 M 2 49.5 L 2 53.5 M 2 53.5 M 2 55.5 L 2 59.5 M 2 59.5 M 2 61.5 L 2 65.5 M 2 65.5 M 2 67.5 L 2 71.5 M 2 71.5 M 2.75 72.75 L 6.75 72.75 M 6.75 72.75 M 8.75 72.75 L 12.75 72.75 M 12.75 72.75 M 14.75 72.75 L 18.75 72.75 M 18.75 72.75 M 20.75 72.75 L 24.75 72.75 M 24.75 72.75 M 26.75 72.75 L 30.75 72.75 M 30.75 72.75 M 32.75 72.75 L 36.75 72.75 M 36.75 72.75 M 38.75 72.75 L 42.75 72.75 M 42.75 72.75 M 44.75 72.75 L 48.75 72.75 M 48.75 72.75 M 50.75 72.75 L 54.75 72.75 M 54.75 72.75 M 56.75 72.75 L 60.75 72.75 M 60.75 72.75 M 62.75 72.75 L 66.75 72.75 M 66.75 72.75 M 68.75 72.75 L 72.75 72.75 M 72.75 72.75 M 74.75 72.75 L 78.75 72.75 M 78.75 72.75 M 80.75 72.75 L 84.75 72.75 M 84.75 72.75 M 86.75 72.75 L 90.75 72.75 M 90.75 72.75 M 92.75 72.75 L 96.75 72.75 M 96.75 72.75 M 97 71 L 97 67 M 97 67 M 97 65 L 97 61 M 97 61 M 97 59 L 97 55 M 97 55 M 97 53 L 97 49 M 97 49 M 97 47 L 97 43 M 97 43 M 97 41 L 97 37 M 97 37 M 97 35 L 97 31 M 97 31 M 97 29 L 97 25 M 97 25 M 97 23 L 97 19 M 97 19 M 97 17 L 97 13 M 97 13 M 97 11 L 97 7 M 97 7 M 97 5 L 97 2.25 L 95.75 2.25 M 95.75 2.25 M 93.75 2.25 L 89.75 2.25 M 89.75 2.25 M 87.75 2.25 L 83.75 2.25 M 83.75 2.25 M 81.75 2.25 L 77.75 2.25 M 77.75 2.25 M 75.75 2.25 L 71.75 2.25 M 71.75 2.25 M 69.75 2.25 L 65.75 2.25 M 65.75 2.25 M 63.75 2.25 L 59.75 2.25 M 59.75 2.25 M 57.75 2.25 L 53.75 2.25 M 53.75 2.25 M 51.75 2.25 L 47.75 2.25 M 47.75 2.25 M 45.75 2.25 L 41.75 2.25 M 41.75 2.25 M 39.75 2.25 L 35.75 2.25 M 35.75 2.25 M 33.75 2.25 L 29.75 2.25 M 29.75 2.25 M 27.75 2.25 L 23.75 2.25 M 23.75 2.25 M 21.75 2.25 L 17.75 2.25 M 17.75 2.25 M 15.75 2.25 L 11.75 2.25 M 11.75 2.25 M 9.75 2.25 L 5.75 2.25 M 5.75 2.25 M 3.75 2.25 L 3 2.25 Z" stroke-miterlimit="10" stroke-width="2" opacity="0"></path></g></g></g></g></g><g transform="scale(1,1) matrix(1,0,0,1,1372,280) translate(2,30.5)"><text fill="#000000" stroke="none" font-family="Arial" font-size="12px" font-style="normal" font-weight="normal" text-decoration="none" x="30" y="11">Music</text></g><g transform="translate(0,0) matrix(1,0,0,1,1510,280)"><g><g transform="translate(0,0) scale(1,0.75)"><g><path fill="#FFFFFF" stroke="none" d="M 0 0 L 100 0 Q 100 0 100 0 L 100 100 Q 100 100 100 100 L 0 100 Q 0 100 0 100 L 0 0 Q 0 0 0 0 Z"></path><g transform="scale(1,1.3333333333333333)"><path fill="none" stroke="#333333" d="M 0 0 L 100 0 Q 100 0 100 0 L 100 75 Q 100 75 100 75 L 0 75 Q 0 75 0 75 L 0 0 Q 0 0 0 0 Z" stroke-miterlimit="10" stroke-width="2"></path></g></g><g><g transform="scale(1,1.3333333333333333)"><path fill="rgb(0,0,0)" stroke="none" d="M 2 1.5 L 2 72.75 L 97 72.75 L 97 2.25 L 3 2.25 Z" fill-opacity="0" opacity="0"></path><path fill="none" stroke="#3C7626" d="M 2 1.5 M 2 1.5 L 2 5.5 M 2 5.5 M 2 7.5 L 2 11.5 M 2 11.5 M 2 13.5 L 2 17.5 M 2 17.5 M 2 19.5 L 2 23.5 M 2 23.5 M 2 25.5 L 2 29.5 M 2 29.5 M 2 31.5 L 2 35.5 M 2 35.5 M 2 37.5 L 2 41.5 M 2 41.5 M 2 43.5 L 2 47.5 M 2 47.5 M 2 49.5 L 2 53.5 M 2 53.5 M 2 55.5 L 2 59.5 M 2 59.5 M 2 61.5 L 2 65.5 M 2 65.5 M 2 67.5 L 2 71.5 M 2 71.5 M 2.75 72.75 L 6.75 72.75 M 6.75 72.75 M 8.75 72.75 L 12.75 72.75 M 12.75 72.75 M 14.75 72.75 L 18.75 72.75 M 18.75 72.75 M 20.75 72.75 L 24.75 72.75 M 24.75 72.75 M 26.75 72.75 L 30.75 72.75 M 30.75 72.75 M 32.75 72.75 L 36.75 72.75 M 36.75 72.75 M 38.75 72.75 L 42.75 72.75 M 42.75 72.75 M 44.75 72.75 L 48.75 72.75 M 48.75 72.75 M 50.75 72.75 L 54.75 72.75 M 54.75 72.75 M 56.75 72.75 L 60.75 72.75 M 60.75 72.75 M 62.75 72.75 L 66.75 72.75 M 66.75 72.75 M 68.75 72.75 L 72.75 72.75 M 72.75 72.75 M 74.75 72.75 L 78.75 72.75 M 78.75 72.75 M 80.75 72.75 L 84.75 72.75 M 84.75 72.75 M 86.75 72.75 L 90.75 72.75 M 90.75 72.75 M 92.75 72.75 L 96.75 72.75 M 96.75 72.75 M 97 71 L 97 67 M 97 67 M 97 65 L 97 61 M 97 61 M 97 59 L 97 55 M 97 55 M 97 53 L 97 49 M 97 49 M 97 47 L 97 43 M 97 43 M 97 41 L 97 37 M 97 37 M 97 35 L 97 31 M 97 31 M 97 29 L 97 25 M 97 25 M 97 23 L 97 19 M 97 19 M 97 17 L 97 13 M 97 13 M 97 11 L 97 7 M 97 7 M 97 5 L 97 2.25 L 95.75 2.25 M 95.75 2.25 M 93.75 2.25 L 89.75 2.25 M 89.75 2.25 M 87.75 2.25 L 83.75 2.25 M 83.75 2.25 M 81.75 2.25 L 77.75 2.25 M 77.75 2.25 M 75.75 2.25 L 71.75 2.25 M 71.75 2.25 M 69.75 2.25 L 65.75 2.25 M 65.75 2.25 M 63.75 2.25 L 59.75 2.25 M 59.75 2.25 M 57.75 2.25 L 53.75 2.25 M 53.75 2.25 M 51.75 2.25 L 47.75 2.25 M 47.75 2.25 M 45.75 2.25 L 41.75 2.25 M 41.75 2.25 M 39.75 2.25 L 35.75 2.25 M 35.75 2.25 M 33.75 2.25 L 29.75 2.25 M 29.75 2.25 M 27.75 2.25 L 23.75 2.25 M 23.75 2.25 M 21.75 2.25 L 17.75 2.25 M 17.75 2.25 M 15.75 2.25 L 11.75 2.25 M 11.75 2.25 M 9.75 2.25 L 5.75 2.25 M 5.75 2.25 M 3.75 2.25 L 3 2.25 Z" stroke-miterlimit="10" stroke-width="2" opacity="0"></path></g></g></g></g></g><g transform="scale(1,1) matrix(1,0,0,1,1512,280) translate(2,30.5)"><text fill="#000000" stroke="none" font-family="Arial" font-size="12px" font-style="normal" font-weight="normal" text-decoration="none" x="12.5" y="11">Sheet Music</text></g><g transform="matrix(1,0,0,1,1135.5,240.5)"><g transform="translate(0,0)"><g transform="translate(-1136.7362637362637,-247.35164835164835) translate(1.2362637362637088,6.85164835164835) matrix(1,0,0,1,0,0)"><g><path fill="none" stroke="#000000" d="M 1140 245 L 1140 253.75 Q 1140 262.5 1150 262.5 L 1550 262.5 Q 1560 262.5 1560 271.25 L 1560 280" stroke-miterlimit="10" stroke-width="2"></path></g></g></g></g><g transform="matrix(1,0,0,1,1135.5,240.5)"><g transform="translate(0,0)"><g transform="translate(-1566.5604395604396,-244.64835164835165) translate(431.0604395604396,4.14835164835165) matrix(1,0,0,1,0,0)"><g><path fill="none" stroke="#000000" d="M 1560 245 L 1560 253.75 Q 1560 262.5 1550 262.5 L 1150 262.5 Q 1140 262.5 1140 271.25 L 1140 280" stroke-miterlimit="10" stroke-width="2"></path></g></g></g></g><g transform="matrix(1,0,0,1,1275.5,240.5)"><g transform="translate(0,0)"><g transform="translate(-1273.2527472527472,-241.94505494505495) translate(-2.2472527472527872,1.4450549450549488) matrix(1,0,0,1,0,0)"><g><path fill="none" stroke="#000000" d="M 1280 245 L 1280 253.75 Q 1280 262.5 1290 262.5 L 1410 262.5 Q 1420 262.5 1420 271.25 L 1420 280" stroke-miterlimit="10" stroke-width="2"></path></g></g></g></g><g transform="matrix(1,0,0,1,1275.5,240.5)"><g transform="translate(0,0)"><g transform="translate(-1416.5274725274726,-246) translate(141.02747252747258,5.5) matrix(1,0,0,1,0,0)"><g><path fill="none" stroke="#000000" d="M 1420 245 L 1420 253.75 Q 1420 262.5 1410 262.5 L 1290 262.5 Q 1280 262.5 1280 271.25 L 1280 280" stroke-miterlimit="10" stroke-width="2"></path></g></g></g></g><g transform="translate(0,0) matrix(1,0,0,1,1090,430)"><g><g transform="translate(0,0) scale(1,0.75)"><g><path fill="#FFFFFF" stroke="none" d="M 0 0 L 100 0 Q 100 0 100 0 L 100 100 Q 100 100 100 100 L 0 100 Q 0 100 0 100 L 0 0 Q 0 0 0 0 Z"></path><g transform="scale(1,1.3333333333333333)"><path fill="none" stroke="#333333" d="M 0 0 L 100 0 Q 100 0 100 0 L 100 75 Q 100 75 100 75 L 0 75 Q 0 75 0 75 L 0 0 Q 0 0 0 0 Z" stroke-miterlimit="10" stroke-width="2"></path></g></g><g><g transform="scale(1,1.3333333333333333)"><path fill="rgb(0,0,0)" stroke="none" d="M 2 1.5 L 2 72.75 L 97 72.75 L 97 2.25 L 3 2.25 Z" fill-opacity="0" opacity="0"></path><path fill="none" stroke="#3C7626" d="M 2 1.5 M 2 1.5 L 2 5.5 M 2 5.5 M 2 7.5 L 2 11.5 M 2 11.5 M 2 13.5 L 2 17.5 M 2 17.5 M 2 19.5 L 2 23.5 M 2 23.5 M 2 25.5 L 2 29.5 M 2 29.5 M 2 31.5 L 2 35.5 M 2 35.5 M 2 37.5 L 2 41.5 M 2 41.5 M 2 43.5 L 2 47.5 M 2 47.5 M 2 49.5 L 2 53.5 M 2 53.5 M 2 55.5 L 2 59.5 M 2 59.5 M 2 61.5 L 2 65.5 M 2 65.5 M 2 67.5 L 2 71.5 M 2 71.5 M 2.75 72.75 L 6.75 72.75 M 6.75 72.75 M 8.75 72.75 L 12.75 72.75 M 12.75 72.75 M 14.75 72.75 L 18.75 72.75 M 18.75 72.75 M 20.75 72.75 L 24.75 72.75 M 24.75 72.75 M 26.75 72.75 L 30.75 72.75 M 30.75 72.75 M 32.75 72.75 L 36.75 72.75 M 36.75 72.75 M 38.75 72.75 L 42.75 72.75 M 42.75 72.75 M 44.75 72.75 L 48.75 72.75 M 48.75 72.75 M 50.75 72.75 L 54.75 72.75 M 54.75 72.75 M 56.75 72.75 L 60.75 72.75 M 60.75 72.75 M 62.75 72.75 L 66.75 72.75 M 66.75 72.75 M 68.75 72.75 L 72.75 72.75 M 72.75 72.75 M 74.75 72.75 L 78.75 72.75 M 78.75 72.75 M 80.75 72.75 L 84.75 72.75 M 84.75 72.75 M 86.75 72.75 L 90.75 72.75 M 90.75 72.75 M 92.75 72.75 L 96.75 72.75 M 96.75 72.75 M 97 71 L 97 67 M 97 67 M 97 65 L 97 61 M 97 61 M 97 59 L 97 55 M 97 55 M 97 53 L 97 49 M 97 49 M 97 47 L 97 43 M 97 43 M 97 41 L 97 37 M 97 37 M 97 35 L 97 31 M 97 31 M 97 29 L 97 25 M 97 25 M 97 23 L 97 19 M 97 19 M 97 17 L 97 13 M 97 13 M 97 11 L 97 7 M 97 7 M 97 5 L 97 2.25 L 95.75 2.25 M 95.75 2.25 M 93.75 2.25 L 89.75 2.25 M 89.75 2.25 M 87.75 2.25 L 83.75 2.25 M 83.75 2.25 M 81.75 2.25 L 77.75 2.25 M 77.75 2.25 M 75.75 2.25 L 71.75 2.25 M 71.75 2.25 M 69.75 2.25 L 65.75 2.25 M 65.75 2.25 M 63.75 2.25 L 59.75 2.25 M 59.75 2.25 M 57.75 2.25 L 53.75 2.25 M 53.75 2.25 M 51.75 2.25 L 47.75 2.25 M 47.75 2.25 M 45.75 2.25 L 41.75 2.25 M 41.75 2.25 M 39.75 2.25 L 35.75 2.25 M 35.75 2.25 M 33.75 2.25 L 29.75 2.25 M 29.75 2.25 M 27.75 2.25 L 23.75 2.25 M 23.75 2.25 M 21.75 2.25 L 17.75 2.25 M 17.75 2.25 M 15.75 2.25 L 11.75 2.25 M 11.75 2.25 M 9.75 2.25 L 5.75 2.25 M 5.75 2.25 M 3.75 2.25 L 3 2.25 Z" stroke-miterlimit="10" stroke-width="2" opacity="0"></path></g></g></g></g></g><g transform="scale(1,1) matrix(1,0,0,1,1092,430) translate(2,23.5)"><text fill="#000000" stroke="none" font-family="Arial" font-size="12px" font-style="normal" font-weight="normal" text-decoration="none" x="7" y="11">Fully Planned </text><text fill="#000000" stroke="none" font-family="Arial" font-size="12px" font-style="normal" font-weight="normal" text-decoration="none" x="29.5" y="25">Meals</text></g><g transform="translate(0,0) matrix(1,0,0,1,1230,430)"><g><g transform="translate(0,0) scale(1,0.75)"><g><path fill="#FFFFFF" stroke="none" d="M 0 0 L 100 0 Q 100 0 100 0 L 100 100 Q 100 100 100 100 L 0 100 Q 0 100 0 100 L 0 0 Q 0 0 0 0 Z"></path><g transform="scale(1,1.3333333333333333)"><path fill="none" stroke="#333333" d="M 0 0 L 100 0 Q 100 0 100 0 L 100 75 Q 100 75 100 75 L 0 75 Q 0 75 0 75 L 0 0 Q 0 0 0 0 Z" stroke-miterlimit="10" stroke-width="2"></path></g></g><g><g transform="scale(1,1.3333333333333333)"><path fill="rgb(0,0,0)" stroke="none" d="M 2 1.5 L 2 72.75 L 97 72.75 L 97 2.25 L 3 2.25 Z" fill-opacity="0" opacity="0"></path><path fill="none" stroke="#3C7626" d="M 2 1.5 M 2 1.5 L 2 5.5 M 2 5.5 M 2 7.5 L 2 11.5 M 2 11.5 M 2 13.5 L 2 17.5 M 2 17.5 M 2 19.5 L 2 23.5 M 2 23.5 M 2 25.5 L 2 29.5 M 2 29.5 M 2 31.5 L 2 35.5 M 2 35.5 M 2 37.5 L 2 41.5 M 2 41.5 M 2 43.5 L 2 47.5 M 2 47.5 M 2 49.5 L 2 53.5 M 2 53.5 M 2 55.5 L 2 59.5 M 2 59.5 M 2 61.5 L 2 65.5 M 2 65.5 M 2 67.5 L 2 71.5 M 2 71.5 M 2.75 72.75 L 6.75 72.75 M 6.75 72.75 M 8.75 72.75 L 12.75 72.75 M 12.75 72.75 M 14.75 72.75 L 18.75 72.75 M 18.75 72.75 M 20.75 72.75 L 24.75 72.75 M 24.75 72.75 M 26.75 72.75 L 30.75 72.75 M 30.75 72.75 M 32.75 72.75 L 36.75 72.75 M 36.75 72.75 M 38.75 72.75 L 42.75 72.75 M 42.75 72.75 M 44.75 72.75 L 48.75 72.75 M 48.75 72.75 M 50.75 72.75 L 54.75 72.75 M 54.75 72.75 M 56.75 72.75 L 60.75 72.75 M 60.75 72.75 M 62.75 72.75 L 66.75 72.75 M 66.75 72.75 M 68.75 72.75 L 72.75 72.75 M 72.75 72.75 M 74.75 72.75 L 78.75 72.75 M 78.75 72.75 M 80.75 72.75 L 84.75 72.75 M 84.75 72.75 M 86.75 72.75 L 90.75 72.75 M 90.75 72.75 M 92.75 72.75 L 96.75 72.75 M 96.75 72.75 M 97 71 L 97 67 M 97 67 M 97 65 L 97 61 M 97 61 M 97 59 L 97 55 M 97 55 M 97 53 L 97 49 M 97 49 M 97 47 L 97 43 M 97 43 M 97 41 L 97 37 M 97 37 M 97 35 L 97 31 M 97 31 M 97 29 L 97 25 M 97 25 M 97 23 L 97 19 M 97 19 M 97 17 L 97 13 M 97 13 M 97 11 L 97 7 M 97 7 M 97 5 L 97 2.25 L 95.75 2.25 M 95.75 2.25 M 93.75 2.25 L 89.75 2.25 M 89.75 2.25 M 87.75 2.25 L 83.75 2.25 M 83.75 2.25 M 81.75 2.25 L 77.75 2.25 M 77.75 2.25 M 75.75 2.25 L 71.75 2.25 M 71.75 2.25 M 69.75 2.25 L 65.75 2.25 M 65.75 2.25 M 63.75 2.25 L 59.75 2.25 M 59.75 2.25 M 57.75 2.25 L 53.75 2.25 M 53.75 2.25 M 51.75 2.25 L 47.75 2.25 M 47.75 2.25 M 45.75 2.25 L 41.75 2.25 M 41.75 2.25 M 39.75 2.25 L 35.75 2.25 M 35.75 2.25 M 33.75 2.25 L 29.75 2.25 M 29.75 2.25 M 27.75 2.25 L 23.75 2.25 M 23.75 2.25 M 21.75 2.25 L 17.75 2.25 M 17.75 2.25 M 15.75 2.25 L 11.75 2.25 M 11.75 2.25 M 9.75 2.25 L 5.75 2.25 M 5.75 2.25 M 3.75 2.25 L 3 2.25 Z" stroke-miterlimit="10" stroke-width="2" opacity="0"></path></g></g></g></g></g><g transform="scale(1,1) matrix(1,0,0,1,1232,430) translate(2,30.5)"><text fill="#000000" stroke="none" font-family="Arial" font-size="12px" font-style="normal" font-weight="normal" text-decoration="none" x="12" y="11">Main Dishes</text></g><g transform="translate(0,0) matrix(1,0,0,1,1370,430)"><g><g transform="translate(0,0) scale(1,0.75)"><g><path fill="#FFFFFF" stroke="none" d="M 0 0 L 100 0 Q 100 0 100 0 L 100 100 Q 100 100 100 100 L 0 100 Q 0 100 0 100 L 0 0 Q 0 0 0 0 Z"></path><g transform="scale(1,1.3333333333333333)"><path fill="none" stroke="#333333" d="M 0 0 L 100 0 Q 100 0 100 0 L 100 75 Q 100 75 100 75 L 0 75 Q 0 75 0 75 L 0 0 Q 0 0 0 0 Z" stroke-miterlimit="10" stroke-width="2"></path></g></g><g><g transform="scale(1,1.3333333333333333)"><path fill="rgb(0,0,0)" stroke="none" d="M 2 1.5 L 2 72.75 L 97 72.75 L 97 2.25 L 3 2.25 Z" fill-opacity="0" opacity="0"></path><path fill="none" stroke="#3C7626" d="M 2 1.5 M 2 1.5 L 2 5.5 M 2 5.5 M 2 7.5 L 2 11.5 M 2 11.5 M 2 13.5 L 2 17.5 M 2 17.5 M 2 19.5 L 2 23.5 M 2 23.5 M 2 25.5 L 2 29.5 M 2 29.5 M 2 31.5 L 2 35.5 M 2 35.5 M 2 37.5 L 2 41.5 M 2 41.5 M 2 43.5 L 2 47.5 M 2 47.5 M 2 49.5 L 2 53.5 M 2 53.5 M 2 55.5 L 2 59.5 M 2 59.5 M 2 61.5 L 2 65.5 M 2 65.5 M 2 67.5 L 2 71.5 M 2 71.5 M 2.75 72.75 L 6.75 72.75 M 6.75 72.75 M 8.75 72.75 L 12.75 72.75 M 12.75 72.75 M 14.75 72.75 L 18.75 72.75 M 18.75 72.75 M 20.75 72.75 L 24.75 72.75 M 24.75 72.75 M 26.75 72.75 L 30.75 72.75 M 30.75 72.75 M 32.75 72.75 L 36.75 72.75 M 36.75 72.75 M 38.75 72.75 L 42.75 72.75 M 42.75 72.75 M 44.75 72.75 L 48.75 72.75 M 48.75 72.75 M 50.75 72.75 L 54.75 72.75 M 54.75 72.75 M 56.75 72.75 L 60.75 72.75 M 60.75 72.75 M 62.75 72.75 L 66.75 72.75 M 66.75 72.75 M 68.75 72.75 L 72.75 72.75 M 72.75 72.75 M 74.75 72.75 L 78.75 72.75 M 78.75 72.75 M 80.75 72.75 L 84.75 72.75 M 84.75 72.75 M 86.75 72.75 L 90.75 72.75 M 90.75 72.75 M 92.75 72.75 L 96.75 72.75 M 96.75 72.75 M 97 71 L 97 67 M 97 67 M 97 65 L 97 61 M 97 61 M 97 59 L 97 55 M 97 55 M 97 53 L 97 49 M 97 49 M 97 47 L 97 43 M 97 43 M 97 41 L 97 37 M 97 37 M 97 35 L 97 31 M 97 31 M 97 29 L 97 25 M 97 25 M 97 23 L 97 19 M 97 19 M 97 17 L 97 13 M 97 13 M 97 11 L 97 7 M 97 7 M 97 5 L 97 2.25 L 95.75 2.25 M 95.75 2.25 M 93.75 2.25 L 89.75 2.25 M 89.75 2.25 M 87.75 2.25 L 83.75 2.25 M 83.75 2.25 M 81.75 2.25 L 77.75 2.25 M 77.75 2.25 M 75.75 2.25 L 71.75 2.25 M 71.75 2.25 M 69.75 2.25 L 65.75 2.25 M 65.75 2.25 M 63.75 2.25 L 59.75 2.25 M 59.75 2.25 M 57.75 2.25 L 53.75 2.25 M 53.75 2.25 M 51.75 2.25 L 47.75 2.25 M 47.75 2.25 M 45.75 2.25 L 41.75 2.25 M 41.75 2.25 M 39.75 2.25 L 35.75 2.25 M 35.75 2.25 M 33.75 2.25 L 29.75 2.25 M 29.75 2.25 M 27.75 2.25 L 23.75 2.25 M 23.75 2.25 M 21.75 2.25 L 17.75 2.25 M 17.75 2.25 M 15.75 2.25 L 11.75 2.25 M 11.75 2.25 M 9.75 2.25 L 5.75 2.25 M 5.75 2.25 M 3.75 2.25 L 3 2.25 Z" stroke-miterlimit="10" stroke-width="2" opacity="0"></path></g></g></g></g></g><g transform="scale(1,1) matrix(1,0,0,1,1372,430) translate(2,30.5)"><text fill="#000000" stroke="none" font-family="Arial" font-size="12px" font-style="normal" font-weight="normal" text-decoration="none" x="13" y="11">Side Dishes</text></g><g transform="translate(0,0) matrix(1,0,0,1,1510,430)"><g><g transform="translate(0,0) scale(1,0.75)"><g><path fill="#FFFFFF" stroke="none" d="M 0 0 L 100 0 Q 100 0 100 0 L 100 100 Q 100 100 100 100 L 0 100 Q 0 100 0 100 L 0 0 Q 0 0 0 0 Z"></path><g transform="scale(1,1.3333333333333333)"><path fill="none" stroke="#333333" d="M 0 0 L 100 0 Q 100 0 100 0 L 100 75 Q 100 75 100 75 L 0 75 Q 0 75 0 75 L 0 0 Q 0 0 0 0 Z" stroke-miterlimit="10" stroke-width="2"></path></g></g><g><g transform="scale(1,1.3333333333333333)"><path fill="rgb(0,0,0)" stroke="none" d="M 2 1.5 L 2 72.75 L 97 72.75 L 97 2.25 L 3 2.25 Z" fill-opacity="0" opacity="0"></path><path fill="none" stroke="#3C7626" d="M 2 1.5 M 2 1.5 L 2 5.5 M 2 5.5 M 2 7.5 L 2 11.5 M 2 11.5 M 2 13.5 L 2 17.5 M 2 17.5 M 2 19.5 L 2 23.5 M 2 23.5 M 2 25.5 L 2 29.5 M 2 29.5 M 2 31.5 L 2 35.5 M 2 35.5 M 2 37.5 L 2 41.5 M 2 41.5 M 2 43.5 L 2 47.5 M 2 47.5 M 2 49.5 L 2 53.5 M 2 53.5 M 2 55.5 L 2 59.5 M 2 59.5 M 2 61.5 L 2 65.5 M 2 65.5 M 2 67.5 L 2 71.5 M 2 71.5 M 2.75 72.75 L 6.75 72.75 M 6.75 72.75 M 8.75 72.75 L 12.75 72.75 M 12.75 72.75 M 14.75 72.75 L 18.75 72.75 M 18.75 72.75 M 20.75 72.75 L 24.75 72.75 M 24.75 72.75 M 26.75 72.75 L 30.75 72.75 M 30.75 72.75 M 32.75 72.75 L 36.75 72.75 M 36.75 72.75 M 38.75 72.75 L 42.75 72.75 M 42.75 72.75 M 44.75 72.75 L 48.75 72.75 M 48.75 72.75 M 50.75 72.75 L 54.75 72.75 M 54.75 72.75 M 56.75 72.75 L 60.75 72.75 M 60.75 72.75 M 62.75 72.75 L 66.75 72.75 M 66.75 72.75 M 68.75 72.75 L 72.75 72.75 M 72.75 72.75 M 74.75 72.75 L 78.75 72.75 M 78.75 72.75 M 80.75 72.75 L 84.75 72.75 M 84.75 72.75 M 86.75 72.75 L 90.75 72.75 M 90.75 72.75 M 92.75 72.75 L 96.75 72.75 M 96.75 72.75 M 97 71 L 97 67 M 97 67 M 97 65 L 97 61 M 97 61 M 97 59 L 97 55 M 97 55 M 97 53 L 97 49 M 97 49 M 97 47 L 97 43 M 97 43 M 97 41 L 97 37 M 97 37 M 97 35 L 97 31 M 97 31 M 97 29 L 97 25 M 97 25 M 97 23 L 97 19 M 97 19 M 97 17 L 97 13 M 97 13 M 97 11 L 97 7 M 97 7 M 97 5 L 97 2.25 L 95.75 2.25 M 95.75 2.25 M 93.75 2.25 L 89.75 2.25 M 89.75 2.25 M 87.75 2.25 L 83.75 2.25 M 83.75 2.25 M 81.75 2.25 L 77.75 2.25 M 77.75 2.25 M 75.75 2.25 L 71.75 2.25 M 71.75 2.25 M 69.75 2.25 L 65.75 2.25 M 65.75 2.25 M 63.75 2.25 L 59.75 2.25 M 59.75 2.25 M 57.75 2.25 L 53.75 2.25 M 53.75 2.25 M 51.75 2.25 L 47.75 2.25 M 47.75 2.25 M 45.75 2.25 L 41.75 2.25 M 41.75 2.25 M 39.75 2.25 L 35.75 2.25 M 35.75 2.25 M 33.75 2.25 L 29.75 2.25 M 29.75 2.25 M 27.75 2.25 L 23.75 2.25 M 23.75 2.25 M 21.75 2.25 L 17.75 2.25 M 17.75 2.25 M 15.75 2.25 L 11.75 2.25 M 11.75 2.25 M 9.75 2.25 L 5.75 2.25 M 5.75 2.25 M 3.75 2.25 L 3 2.25 Z" stroke-miterlimit="10" stroke-width="2" opacity="0"></path></g></g></g></g></g><g transform="scale(1,1) matrix(1,0,0,1,1512,430) translate(2,30.5)"><text fill="#000000" stroke="none" font-family="Arial" font-size="12px" font-style="normal" font-weight="normal" text-decoration="none" x="22" y="11">Desserts</text></g><g transform="translate(0,0) matrix(1,0,0,1,1095,555)"><g><g transform="translate(0,0) scale(1,0.75)"><g><path fill="#FFFFFF" stroke="none" d="M 0 0 L 100 0 Q 100 0 100 0 L 100 100 Q 100 100 100 100 L 0 100 Q 0 100 0 100 L 0 0 Q 0 0 0 0 Z"></path><g transform="scale(1,1.3333333333333333)"><path fill="none" stroke="#333333" d="M 0 0 L 100 0 Q 100 0 100 0 L 100 75 Q 100 75 100 75 L 0 75 Q 0 75 0 75 L 0 0 Q 0 0 0 0 Z" stroke-miterlimit="10" stroke-width="2"></path></g></g><g><g transform="scale(1,1.3333333333333333)"><path fill="rgb(0,0,0)" stroke="none" d="M 2 1.5 L 2 72.75 L 97 72.75 L 97 2.25 L 3 2.25 Z" fill-opacity="0" opacity="0"></path><path fill="none" stroke="#3C7626" d="M 2 1.5 M 2 1.5 L 2 5.5 M 2 5.5 M 2 7.5 L 2 11.5 M 2 11.5 M 2 13.5 L 2 17.5 M 2 17.5 M 2 19.5 L 2 23.5 M 2 23.5 M 2 25.5 L 2 29.5 M 2 29.5 M 2 31.5 L 2 35.5 M 2 35.5 M 2 37.5 L 2 41.5 M 2 41.5 M 2 43.5 L 2 47.5 M 2 47.5 M 2 49.5 L 2 53.5 M 2 53.5 M 2 55.5 L 2 59.5 M 2 59.5 M 2 61.5 L 2 65.5 M 2 65.5 M 2 67.5 L 2 71.5 M 2 71.5 M 2.75 72.75 L 6.75 72.75 M 6.75 72.75 M 8.75 72.75 L 12.75 72.75 M 12.75 72.75 M 14.75 72.75 L 18.75 72.75 M 18.75 72.75 M 20.75 72.75 L 24.75 72.75 M 24.75 72.75 M 26.75 72.75 L 30.75 72.75 M 30.75 72.75 M 32.75 72.75 L 36.75 72.75 M 36.75 72.75 M 38.75 72.75 L 42.75 72.75 M 42.75 72.75 M 44.75 72.75 L 48.75 72.75 M 48.75 72.75 M 50.75 72.75 L 54.75 72.75 M 54.75 72.75 M 56.75 72.75 L 60.75 72.75 M 60.75 72.75 M 62.75 72.75 L 66.75 72.75 M 66.75 72.75 M 68.75 72.75 L 72.75 72.75 M 72.75 72.75 M 74.75 72.75 L 78.75 72.75 M 78.75 72.75 M 80.75 72.75 L 84.75 72.75 M 84.75 72.75 M 86.75 72.75 L 90.75 72.75 M 90.75 72.75 M 92.75 72.75 L 96.75 72.75 M 96.75 72.75 M 97 71 L 97 67 M 97 67 M 97 65 L 97 61 M 97 61 M 97 59 L 97 55 M 97 55 M 97 53 L 97 49 M 97 49 M 97 47 L 97 43 M 97 43 M 97 41 L 97 37 M 97 37 M 97 35 L 97 31 M 97 31 M 97 29 L 97 25 M 97 25 M 97 23 L 97 19 M 97 19 M 97 17 L 97 13 M 97 13 M 97 11 L 97 7 M 97 7 M 97 5 L 97 2.25 L 95.75 2.25 M 95.75 2.25 M 93.75 2.25 L 89.75 2.25 M 89.75 2.25 M 87.75 2.25 L 83.75 2.25 M 83.75 2.25 M 81.75 2.25 L 77.75 2.25 M 77.75 2.25 M 75.75 2.25 L 71.75 2.25 M 71.75 2.25 M 69.75 2.25 L 65.75 2.25 M 65.75 2.25 M 63.75 2.25 L 59.75 2.25 M 59.75 2.25 M 57.75 2.25 L 53.75 2.25 M 53.75 2.25 M 51.75 2.25 L 47.75 2.25 M 47.75 2.25 M 45.75 2.25 L 41.75 2.25 M 41.75 2.25 M 39.75 2.25 L 35.75 2.25 M 35.75 2.25 M 33.75 2.25 L 29.75 2.25 M 29.75 2.25 M 27.75 2.25 L 23.75 2.25 M 23.75 2.25 M 21.75 2.25 L 17.75 2.25 M 17.75 2.25 M 15.75 2.25 L 11.75 2.25 M 11.75 2.25 M 9.75 2.25 L 5.75 2.25 M 5.75 2.25 M 3.75 2.25 L 3 2.25 Z" stroke-miterlimit="10" stroke-width="2" opacity="0"></path></g></g></g></g></g><g transform="scale(1,1) matrix(1,0,0,1,1097,555) translate(2,30.5)"><text fill="#000000" stroke="none" font-family="Arial" font-size="12px" font-style="normal" font-weight="normal" text-decoration="none" x="15.5" y="11">Ingredients</text></g><g transform="translate(0,0) matrix(1,0,0,1,1235,555)"><g><g transform="translate(0,0) scale(1,0.75)"><g><path fill="#FFFFFF" stroke="none" d="M 0 0 L 100 0 Q 100 0 100 0 L 100 100 Q 100 100 100 100 L 0 100 Q 0 100 0 100 L 0 0 Q 0 0 0 0 Z"></path><g transform="scale(1,1.3333333333333333)"><path fill="none" stroke="#333333" d="M 0 0 L 100 0 Q 100 0 100 0 L 100 75 Q 100 75 100 75 L 0 75 Q 0 75 0 75 L 0 0 Q 0 0 0 0 Z" stroke-miterlimit="10" stroke-width="2"></path></g></g><g><g transform="scale(1,1.3333333333333333)"><path fill="rgb(0,0,0)" stroke="none" d="M 2 1.5 L 2 72.75 L 97 72.75 L 97 2.25 L 3 2.25 Z" fill-opacity="0" opacity="0"></path><path fill="none" stroke="#3C7626" d="M 2 1.5 M 2 1.5 L 2 5.5 M 2 5.5 M 2 7.5 L 2 11.5 M 2 11.5 M 2 13.5 L 2 17.5 M 2 17.5 M 2 19.5 L 2 23.5 M 2 23.5 M 2 25.5 L 2 29.5 M 2 29.5 M 2 31.5 L 2 35.5 M 2 35.5 M 2 37.5 L 2 41.5 M 2 41.5 M 2 43.5 L 2 47.5 M 2 47.5 M 2 49.5 L 2 53.5 M 2 53.5 M 2 55.5 L 2 59.5 M 2 59.5 M 2 61.5 L 2 65.5 M 2 65.5 M 2 67.5 L 2 71.5 M 2 71.5 M 2.75 72.75 L 6.75 72.75 M 6.75 72.75 M 8.75 72.75 L 12.75 72.75 M 12.75 72.75 M 14.75 72.75 L 18.75 72.75 M 18.75 72.75 M 20.75 72.75 L 24.75 72.75 M 24.75 72.75 M 26.75 72.75 L 30.75 72.75 M 30.75 72.75 M 32.75 72.75 L 36.75 72.75 M 36.75 72.75 M 38.75 72.75 L 42.75 72.75 M 42.75 72.75 M 44.75 72.75 L 48.75 72.75 M 48.75 72.75 M 50.75 72.75 L 54.75 72.75 M 54.75 72.75 M 56.75 72.75 L 60.75 72.75 M 60.75 72.75 M 62.75 72.75 L 66.75 72.75 M 66.75 72.75 M 68.75 72.75 L 72.75 72.75 M 72.75 72.75 M 74.75 72.75 L 78.75 72.75 M 78.75 72.75 M 80.75 72.75 L 84.75 72.75 M 84.75 72.75 M 86.75 72.75 L 90.75 72.75 M 90.75 72.75 M 92.75 72.75 L 96.75 72.75 M 96.75 72.75 M 97 71 L 97 67 M 97 67 M 97 65 L 97 61 M 97 61 M 97 59 L 97 55 M 97 55 M 97 53 L 97 49 M 97 49 M 97 47 L 97 43 M 97 43 M 97 41 L 97 37 M 97 37 M 97 35 L 97 31 M 97 31 M 97 29 L 97 25 M 97 25 M 97 23 L 97 19 M 97 19 M 97 17 L 97 13 M 97 13 M 97 11 L 97 7 M 97 7 M 97 5 L 97 2.25 L 95.75 2.25 M 95.75 2.25 M 93.75 2.25 L 89.75 2.25 M 89.75 2.25 M 87.75 2.25 L 83.75 2.25 M 83.75 2.25 M 81.75 2.25 L 77.75 2.25 M 77.75 2.25 M 75.75 2.25 L 71.75 2.25 M 71.75 2.25 M 69.75 2.25 L 65.75 2.25 M 65.75 2.25 M 63.75 2.25 L 59.75 2.25 M 59.75 2.25 M 57.75 2.25 L 53.75 2.25 M 53.75 2.25 M 51.75 2.25 L 47.75 2.25 M 47.75 2.25 M 45.75 2.25 L 41.75 2.25 M 41.75 2.25 M 39.75 2.25 L 35.75 2.25 M 35.75 2.25 M 33.75 2.25 L 29.75 2.25 M 29.75 2.25 M 27.75 2.25 L 23.75 2.25 M 23.75 2.25 M 21.75 2.25 L 17.75 2.25 M 17.75 2.25 M 15.75 2.25 L 11.75 2.25 M 11.75 2.25 M 9.75 2.25 L 5.75 2.25 M 5.75 2.25 M 3.75 2.25 L 3 2.25 Z" stroke-miterlimit="10" stroke-width="2" opacity="0"></path></g></g></g></g></g><g transform="scale(1,1) matrix(1,0,0,1,1237,555) translate(2,9.5)"><text fill="#000000" stroke="none" font-family="Arial" font-size="12px" font-style="normal" font-weight="normal" text-decoration="none" x="6.5" y="11"># of recipes to </text><text fill="#000000" stroke="none" font-family="Arial" font-size="12px" font-style="normal" font-weight="normal" text-decoration="none" x="10.5" y="25">make ( more </text><text fill="#000000" stroke="none" font-family="Arial" font-size="12px" font-style="normal" font-weight="normal" text-decoration="none" x="4" y="39">than 1 = add to </text><text fill="#000000" stroke="none" font-family="Arial" font-size="12px" font-style="normal" font-weight="normal" text-decoration="none" x="36.5" y="53">list)</text></g><g transform="translate(0,0) matrix(1,0,0,1,1375,555)"><g><g transform="translate(0,0) scale(1,0.75)"><g><path fill="#FFFFFF" stroke="none" d="M 0 0 L 100 0 Q 100 0 100 0 L 100 100 Q 100 100 100 100 L 0 100 Q 0 100 0 100 L 0 0 Q 0 0 0 0 Z"></path><g transform="scale(1,1.3333333333333333)"><path fill="none" stroke="#333333" d="M 0 0 L 100 0 Q 100 0 100 0 L 100 75 Q 100 75 100 75 L 0 75 Q 0 75 0 75 L 0 0 Q 0 0 0 0 Z" stroke-miterlimit="10" stroke-width="2"></path></g></g><g><g transform="scale(1,1.3333333333333333)"><path fill="rgb(0,0,0)" stroke="none" d="M 2 1.5 L 2 72.75 L 97 72.75 L 97 2.25 L 3 2.25 Z" fill-opacity="0" opacity="0"></path><path fill="none" stroke="#3C7626" d="M 2 1.5 M 2 1.5 L 2 5.5 M 2 5.5 M 2 7.5 L 2 11.5 M 2 11.5 M 2 13.5 L 2 17.5 M 2 17.5 M 2 19.5 L 2 23.5 M 2 23.5 M 2 25.5 L 2 29.5 M 2 29.5 M 2 31.5 L 2 35.5 M 2 35.5 M 2 37.5 L 2 41.5 M 2 41.5 M 2 43.5 L 2 47.5 M 2 47.5 M 2 49.5 L 2 53.5 M 2 53.5 M 2 55.5 L 2 59.5 M 2 59.5 M 2 61.5 L 2 65.5 M 2 65.5 M 2 67.5 L 2 71.5 M 2 71.5 M 2.75 72.75 L 6.75 72.75 M 6.75 72.75 M 8.75 72.75 L 12.75 72.75 M 12.75 72.75 M 14.75 72.75 L 18.75 72.75 M 18.75 72.75 M 20.75 72.75 L 24.75 72.75 M 24.75 72.75 M 26.75 72.75 L 30.75 72.75 M 30.75 72.75 M 32.75 72.75 L 36.75 72.75 M 36.75 72.75 M 38.75 72.75 L 42.75 72.75 M 42.75 72.75 M 44.75 72.75 L 48.75 72.75 M 48.75 72.75 M 50.75 72.75 L 54.75 72.75 M 54.75 72.75 M 56.75 72.75 L 60.75 72.75 M 60.75 72.75 M 62.75 72.75 L 66.75 72.75 M 66.75 72.75 M 68.75 72.75 L 72.75 72.75 M 72.75 72.75 M 74.75 72.75 L 78.75 72.75 M 78.75 72.75 M 80.75 72.75 L 84.75 72.75 M 84.75 72.75 M 86.75 72.75 L 90.75 72.75 M 90.75 72.75 M 92.75 72.75 L 96.75 72.75 M 96.75 72.75 M 97 71 L 97 67 M 97 67 M 97 65 L 97 61 M 97 61 M 97 59 L 97 55 M 97 55 M 97 53 L 97 49 M 97 49 M 97 47 L 97 43 M 97 43 M 97 41 L 97 37 M 97 37 M 97 35 L 97 31 M 97 31 M 97 29 L 97 25 M 97 25 M 97 23 L 97 19 M 97 19 M 97 17 L 97 13 M 97 13 M 97 11 L 97 7 M 97 7 M 97 5 L 97 2.25 L 95.75 2.25 M 95.75 2.25 M 93.75 2.25 L 89.75 2.25 M 89.75 2.25 M 87.75 2.25 L 83.75 2.25 M 83.75 2.25 M 81.75 2.25 L 77.75 2.25 M 77.75 2.25 M 75.75 2.25 L 71.75 2.25 M 71.75 2.25 M 69.75 2.25 L 65.75 2.25 M 65.75 2.25 M 63.75 2.25 L 59.75 2.25 M 59.75 2.25 M 57.75 2.25 L 53.75 2.25 M 53.75 2.25 M 51.75 2.25 L 47.75 2.25 M 47.75 2.25 M 45.75 2.25 L 41.75 2.25 M 41.75 2.25 M 39.75 2.25 L 35.75 2.25 M 35.75 2.25 M 33.75 2.25 L 29.75 2.25 M 29.75 2.25 M 27.75 2.25 L 23.75 2.25 M 23.75 2.25 M 21.75 2.25 L 17.75 2.25 M 17.75 2.25 M 15.75 2.25 L 11.75 2.25 M 11.75 2.25 M 9.75 2.25 L 5.75 2.25 M 5.75 2.25 M 3.75 2.25 L 3 2.25 Z" stroke-miterlimit="10" stroke-width="2" opacity="0"></path></g></g></g></g></g><g transform="scale(1,1) matrix(1,0,0,1,1377,555) translate(2,23.5)"><text fill="#000000" stroke="none" font-family="Arial" font-size="12px" font-style="normal" font-weight="normal" text-decoration="none" x="18.5" y="11">Allergens </text><text fill="#000000" stroke="none" font-family="Arial" font-size="12px" font-style="normal" font-weight="normal" text-decoration="none" x="24.5" y="25">(popup)</text></g><g transform="translate(0,0) matrix(1,0,0,1,1515,555)"><g><g transform="translate(0,0) scale(1,0.75)"><g><path fill="#FFFFFF" stroke="none" d="M 0 0 L 100 0 Q 100 0 100 0 L 100 100 Q 100 100 100 100 L 0 100 Q 0 100 0 100 L 0 0 Q 0 0 0 0 Z"></path><g transform="scale(1,1.3333333333333333)"><path fill="none" stroke="#333333" d="M 0 0 L 100 0 Q 100 0 100 0 L 100 75 Q 100 75 100 75 L 0 75 Q 0 75 0 75 L 0 0 Q 0 0 0 0 Z" stroke-miterlimit="10" stroke-width="2"></path></g></g><g><g transform="scale(1,1.3333333333333333)"><path fill="rgb(0,0,0)" stroke="none" d="M 2 1.5 L 2 72.75 L 97 72.75 L 97 2.25 L 3 2.25 Z" fill-opacity="0" opacity="0"></path><path fill="none" stroke="#3C7626" d="M 2 1.5 M 2 1.5 L 2 5.5 M 2 5.5 M 2 7.5 L 2 11.5 M 2 11.5 M 2 13.5 L 2 17.5 M 2 17.5 M 2 19.5 L 2 23.5 M 2 23.5 M 2 25.5 L 2 29.5 M 2 29.5 M 2 31.5 L 2 35.5 M 2 35.5 M 2 37.5 L 2 41.5 M 2 41.5 M 2 43.5 L 2 47.5 M 2 47.5 M 2 49.5 L 2 53.5 M 2 53.5 M 2 55.5 L 2 59.5 M 2 59.5 M 2 61.5 L 2 65.5 M 2 65.5 M 2 67.5 L 2 71.5 M 2 71.5 M 2.75 72.75 L 6.75 72.75 M 6.75 72.75 M 8.75 72.75 L 12.75 72.75 M 12.75 72.75 M 14.75 72.75 L 18.75 72.75 M 18.75 72.75 M 20.75 72.75 L 24.75 72.75 M 24.75 72.75 M 26.75 72.75 L 30.75 72.75 M 30.75 72.75 M 32.75 72.75 L 36.75 72.75 M 36.75 72.75 M 38.75 72.75 L 42.75 72.75 M 42.75 72.75 M 44.75 72.75 L 48.75 72.75 M 48.75 72.75 M 50.75 72.75 L 54.75 72.75 M 54.75 72.75 M 56.75 72.75 L 60.75 72.75 M 60.75 72.75 M 62.75 72.75 L 66.75 72.75 M 66.75 72.75 M 68.75 72.75 L 72.75 72.75 M 72.75 72.75 M 74.75 72.75 L 78.75 72.75 M 78.75 72.75 M 80.75 72.75 L 84.75 72.75 M 84.75 72.75 M 86.75 72.75 L 90.75 72.75 M 90.75 72.75 M 92.75 72.75 L 96.75 72.75 M 96.75 72.75 M 97 71 L 97 67 M 97 67 M 97 65 L 97 61 M 97 61 M 97 59 L 97 55 M 97 55 M 97 53 L 97 49 M 97 49 M 97 47 L 97 43 M 97 43 M 97 41 L 97 37 M 97 37 M 97 35 L 97 31 M 97 31 M 97 29 L 97 25 M 97 25 M 97 23 L 97 19 M 97 19 M 97 17 L 97 13 M 97 13 M 97 11 L 97 7 M 97 7 M 97 5 L 97 2.25 L 95.75 2.25 M 95.75 2.25 M 93.75 2.25 L 89.75 2.25 M 89.75 2.25 M 87.75 2.25 L 83.75 2.25 M 83.75 2.25 M 81.75 2.25 L 77.75 2.25 M 77.75 2.25 M 75.75 2.25 L 71.75 2.25 M 71.75 2.25 M 69.75 2.25 L 65.75 2.25 M 65.75 2.25 M 63.75 2.25 L 59.75 2.25 M 59.75 2.25 M 57.75 2.25 L 53.75 2.25 M 53.75 2.25 M 51.75 2.25 L 47.75 2.25 M 47.75 2.25 M 45.75 2.25 L 41.75 2.25 M 41.75 2.25 M 39.75 2.25 L 35.75 2.25 M 35.75 2.25 M 33.75 2.25 L 29.75 2.25 M 29.75 2.25 M 27.75 2.25 L 23.75 2.25 M 23.75 2.25 M 21.75 2.25 L 17.75 2.25 M 17.75 2.25 M 15.75 2.25 L 11.75 2.25 M 11.75 2.25 M 9.75 2.25 L 5.75 2.25 M 5.75 2.25 M 3.75 2.25 L 3 2.25 Z" stroke-miterlimit="10" stroke-width="2" opacity="0"></path></g></g></g></g></g><g transform="scale(1,1) matrix(1,0,0,1,1517,555) translate(2,30.5)"><text fill="#000000" stroke="none" font-family="Arial" font-size="12px" font-style="normal" font-weight="normal" text-decoration="none" x="6.5" y="11">Nutritional Info</text></g><g transform="translate(0,0) matrix(1,0,0,1,1645,555)"><g><g transform="translate(0,0) scale(1,0.75)"><g><path fill="#FFFFFF" stroke="none" d="M 0 0 L 100 0 Q 100 0 100 0 L 100 100 Q 100 100 100 100 L 0 100 Q 0 100 0 100 L 0 0 Q 0 0 0 0 Z"></path><g transform="scale(1,1.3333333333333333)"><path fill="none" stroke="#333333" d="M 0 0 L 100 0 Q 100 0 100 0 L 100 75 Q 100 75 100 75 L 0 75 Q 0 75 0 75 L 0 0 Q 0 0 0 0 Z" stroke-miterlimit="10" stroke-width="2"></path></g></g><g><g transform="scale(1,1.3333333333333333)"><path fill="rgb(0,0,0)" stroke="none" d="M 2 1.5 L 2 72.75 L 97 72.75 L 97 2.25 L 3 2.25 Z" fill-opacity="0" opacity="0"></path><path fill="none" stroke="#3C7626" d="M 2 1.5 M 2 1.5 L 2 5.5 M 2 5.5 M 2 7.5 L 2 11.5 M 2 11.5 M 2 13.5 L 2 17.5 M 2 17.5 M 2 19.5 L 2 23.5 M 2 23.5 M 2 25.5 L 2 29.5 M 2 29.5 M 2 31.5 L 2 35.5 M 2 35.5 M 2 37.5 L 2 41.5 M 2 41.5 M 2 43.5 L 2 47.5 M 2 47.5 M 2 49.5 L 2 53.5 M 2 53.5 M 2 55.5 L 2 59.5 M 2 59.5 M 2 61.5 L 2 65.5 M 2 65.5 M 2 67.5 L 2 71.5 M 2 71.5 M 2.75 72.75 L 6.75 72.75 M 6.75 72.75 M 8.75 72.75 L 12.75 72.75 M 12.75 72.75 M 14.75 72.75 L 18.75 72.75 M 18.75 72.75 M 20.75 72.75 L 24.75 72.75 M 24.75 72.75 M 26.75 72.75 L 30.75 72.75 M 30.75 72.75 M 32.75 72.75 L 36.75 72.75 M 36.75 72.75 M 38.75 72.75 L 42.75 72.75 M 42.75 72.75 M 44.75 72.75 L 48.75 72.75 M 48.75 72.75 M 50.75 72.75 L 54.75 72.75 M 54.75 72.75 M 56.75 72.75 L 60.75 72.75 M 60.75 72.75 M 62.75 72.75 L 66.75 72.75 M 66.75 72.75 M 68.75 72.75 L 72.75 72.75 M 72.75 72.75 M 74.75 72.75 L 78.75 72.75 M 78.75 72.75 M 80.75 72.75 L 84.75 72.75 M 84.75 72.75 M 86.75 72.75 L 90.75 72.75 M 90.75 72.75 M 92.75 72.75 L 96.75 72.75 M 96.75 72.75 M 97 71 L 97 67 M 97 67 M 97 65 L 97 61 M 97 61 M 97 59 L 97 55 M 97 55 M 97 53 L 97 49 M 97 49 M 97 47 L 97 43 M 97 43 M 97 41 L 97 37 M 97 37 M 97 35 L 97 31 M 97 31 M 97 29 L 97 25 M 97 25 M 97 23 L 97 19 M 97 19 M 97 17 L 97 13 M 97 13 M 97 11 L 97 7 M 97 7 M 97 5 L 97 2.25 L 95.75 2.25 M 95.75 2.25 M 93.75 2.25 L 89.75 2.25 M 89.75 2.25 M 87.75 2.25 L 83.75 2.25 M 83.75 2.25 M 81.75 2.25 L 77.75 2.25 M 77.75 2.25 M 75.75 2.25 L 71.75 2.25 M 71.75 2.25 M 69.75 2.25 L 65.75 2.25 M 65.75 2.25 M 63.75 2.25 L 59.75 2.25 M 59.75 2.25 M 57.75 2.25 L 53.75 2.25 M 53.75 2.25 M 51.75 2.25 L 47.75 2.25 M 47.75 2.25 M 45.75 2.25 L 41.75 2.25 M 41.75 2.25 M 39.75 2.25 L 35.75 2.25 M 35.75 2.25 M 33.75 2.25 L 29.75 2.25 M 29.75 2.25 M 27.75 2.25 L 23.75 2.25 M 23.75 2.25 M 21.75 2.25 L 17.75 2.25 M 17.75 2.25 M 15.75 2.25 L 11.75 2.25 M 11.75 2.25 M 9.75 2.25 L 5.75 2.25 M 5.75 2.25 M 3.75 2.25 L 3 2.25 Z" stroke-miterlimit="10" stroke-width="2" opacity="0"></path></g></g></g></g></g><g transform="scale(1,1) matrix(1,0,0,1,1647,555) translate(2,30.5)"><text fill="#000000" stroke="none" font-family="Arial" font-size="12px" font-style="normal" font-weight="normal" text-decoration="none" x="26.5" y="11">Recipe</text></g><g transform="matrix(1,0,0,1,1055.5,363)"><g transform="translate(0,0)"><g transform="translate(-1062.3956043956043,-371.7032967032967) translate(6.895604395604323,8.7032967032967) matrix(1,0,0,1,0,0)"><g><path fill="none" stroke="#000000" d="M 1060 367.5 L 1130 367.5 Q 1140 367.5 1140 377.5 L 1140 430" stroke-miterlimit="10" stroke-width="2"></path></g></g></g></g><g transform="matrix(1,0,0,1,1055.5,363)"><g transform="translate(0,0)"><g transform="translate(-1281.3626373626373,-382.5164835164835) translate(225.86263736263732,19.516483516483504) matrix(1,0,0,1,0,0)"><g><path fill="none" stroke="#000000" d="M 1280 430 L 1280 377.5 Q 1280 367.5 1270 367.5 L 1060 367.5" stroke-miterlimit="10" stroke-width="2"></path></g></g></g></g><g transform="matrix(1,0,0,1,1055.5,363)"><g transform="translate(0,0)"><g transform="translate(-1424.6373626373627,-373.05494505494505) translate(369.1373626373627,10.054945054945051) matrix(1,0,0,1,0,0)"><g><path fill="none" stroke="#000000" d="M 1424.6373626373627 430 L 1424.6373626373627 377.5 Q 1424.6373626373627 367.5 1414.6373626373627 367.5 L 1060 367.5" stroke-miterlimit="10" stroke-width="2"></path></g></g></g></g><g transform="matrix(1,0,0,1,1055.5,363)"><g transform="translate(0,0)"><g transform="translate(-1561.1538461538462,-383.86813186813185) translate(505.6538461538462,20.868131868131854) matrix(1,0,0,1,0,0)"><g><path fill="none" stroke="#000000" d="M 1560 430 L 1560 377.5 Q 1560 367.5 1550 367.5 L 1060 367.5" stroke-miterlimit="10" stroke-width="2"></path></g></g></g></g><g transform="matrix(1,0,0,1,1140.5,500.5)"><g transform="translate(0,0)"><g transform="translate(-1190.8021978021977,-471.7142857142858) translate(50.302197802197725,-28.78571428571422) matrix(1,0,0,1,0,0)"><g><path fill="none" stroke="#000000" d="M 1280 505 L 1280 520 Q 1280 530 1270 530 L 1155 530 Q 1145 530 1145 540 L 1145 555" stroke-miterlimit="10" stroke-width="2"></path></g></g></g></g><g transform="matrix(1,0,0,1,1135.5,411.1813186813187)"><g transform="translate(0,0)"><g transform="translate(-1157.010989010989,-504.1538461538462) translate(21.51098901098908,92.97252747252747) matrix(1,0,0,1,0,0)"><g><path fill="none" stroke="#000000" d="M 1140 430 L 1140 422.8406593406594 Q 1140 415.6813186813187 1150 415.6813186813187 L 1410 415.6813186813187 Q 1420 415.6813186813187 1420 422.8406593406594 L 1420 430" stroke-miterlimit="10" stroke-width="2"></path></g></g></g></g><g transform="matrix(1,0,0,1,1135.5,408.47802197802196)"><g transform="translate(0,0)"><g transform="translate(-1255.6813186813185,-506.8571428571429) translate(120.18131868131854,98.37912087912093) matrix(1,0,0,1,0,0)"><g><path fill="none" stroke="#000000" d="M 1280 430 L 1280 421.489010989011 Q 1280 412.97802197802196 1270 412.97802197802196 L 1150 412.97802197802196 Q 1140 412.97802197802196 1140 421.489010989011 L 1140 430" stroke-miterlimit="10" stroke-width="2"></path></g></g></g></g><g transform="matrix(1,0,0,1,1135.5,409.8296703296703)"><g transform="translate(0,0)"><g transform="translate(-1539.5274725274726,-506.8571428571429) translate(404.0274725274726,97.02747252747258) matrix(1,0,0,1,0,0)"><g><path fill="none" stroke="#000000" d="M 1560 430 L 1560 422.16483516483515 Q 1560 414.3296703296703 1550 414.3296703296703 L 1150 414.3296703296703 Q 1140 414.3296703296703 1140 422.16483516483515 L 1140 430" stroke-miterlimit="10" stroke-width="2"></path></g></g></g></g><g transform="matrix(1,0,0,1,1275.5,500.5)"><g transform="translate(0,0)"><g transform="translate(-1275.956043956044,-506.86813186813185) translate(0.45604395604391357,6.368131868131854) matrix(1,0,0,1,0,0)"><g><path fill="none" stroke="#000000" d="M 1280 505 L 1280 513.374896350934 Q 1280 521.7497927018682 1280 530.1246890528022 L 1280 530.1246890528022 Q 1280 538.4995854037362 1280 546.8744817546703 L 1280 555.2493781056044" stroke-miterlimit="10" stroke-width="2"></path></g></g></g></g><g transform="matrix(1,0,0,1,1275.5,500.5)"><g transform="translate(0,0)"><g transform="translate(-1280.0109890109889,-505.5164835164835) translate(4.510989010988851,5.016483516483504) matrix(1,0,0,1,0,0)"><g><path fill="none" stroke="#000000" d="M 1280 505 L 1280 520 Q 1280 530 1290 530 L 1415 530 Q 1425 530 1425 540 L 1425 555" stroke-miterlimit="10" stroke-width="2"></path></g></g></g></g><g transform="matrix(1,0,0,1,1275.5,500.5)"><g transform="translate(0,0)"><g transform="translate(-1275.956043956044,-505.5164835164835) translate(0.45604395604391357,5.016483516483504) matrix(1,0,0,1,0,0)"><g><path fill="none" stroke="#000000" d="M 1280 505 L 1280 520 Q 1280 530 1290 530 L 1555 530 Q 1565 530 1565 540 L 1565 555" stroke-miterlimit="10" stroke-width="2"></path></g></g></g></g><g transform="matrix(1,0,0,1,1275.5,500.5)"><g transform="translate(0,0)"><g transform="translate(-1282.7142857142858,-502.8131868131868) translate(7.214285714285779,2.313186813186803) matrix(1,0,0,1,0,0)"><g><path fill="none" stroke="#000000" d="M 1280 505 L 1280 520 Q 1280 530 1290 530 L 1685 530 Q 1695 530 1695 540 L 1695 555" stroke-miterlimit="10" stroke-width="2"></path></g></g></g></g><g transform="matrix(1,0,0,1,1280.5,500.5)"><g transform="translate(0,0)"><g transform="translate(-1424.6373626373627,-504.16483516483515) translate(144.13736263736268,3.6648351648351536) matrix(1,0,0,1,0,0)"><g><path fill="none" stroke="#000000" d="M 1420 505 L 1420 520 Q 1420 530 1410 530 L 1295 530 Q 1285 530 1285 540 L 1285 555" stroke-miterlimit="10" stroke-width="2"></path></g></g></g></g><g transform="matrix(1,0,0,1,1415.5,500.5)"><g transform="translate(0,0)"><g transform="translate(-1419.2307692307693,-502.8131868131868) translate(3.7307692307692832,2.313186813186803) matrix(1,0,0,1,0,0)"><g><path fill="none" stroke="#000000" d="M 1420 505 L 1420 524.9945054945055 Q 1420 534.9945054945055 1422.3186813186812 534.9945054945055 L 1422.3186813186812 534.9945054945055 Q 1424.6373626373627 534.9945054945055 1424.6373626373627 544.9945054945055 L 1424.6373626373627 564.9890109890109" stroke-miterlimit="10" stroke-width="2"></path></g></g></g></g><g transform="matrix(1,0,0,1,1415.5,500.5)"><g transform="translate(0,0)"><g transform="translate(-1417.8791208791208,-501.46153846153845) translate(2.379120879120819,0.9615384615384528) matrix(1,0,0,1,0,0)"><g><path fill="none" stroke="#000000" d="M 1420 505 L 1420 520 Q 1420 530 1430 530 L 1555 530 Q 1565 530 1565 540 L 1565 555" stroke-miterlimit="10" stroke-width="2"></path></g></g></g></g><g transform="matrix(1,0,0,1,1420.5,500.5)"><g transform="translate(0,0)"><g transform="translate(-1561.1538461538462,-508.2197802197802) translate(140.6538461538462,7.719780219780205) matrix(1,0,0,1,0,0)"><g><path fill="none" stroke="#000000" d="M 1560 505 L 1560 520 Q 1560 530 1550 530 L 1435 530 Q 1425 530 1425 540 L 1425 555" stroke-miterlimit="10" stroke-width="2"></path></g></g></g></g><g transform="matrix(1,0,0,1,1555.5,500.5)"><g transform="translate(0,0)"><g transform="translate(-1558.4505494505495,-504.16483516483515) translate(2.950549450549488,3.6648351648351536) matrix(1,0,0,1,0,0)"><g><path fill="none" stroke="#000000" d="M 1560 505 L 1560 520 Q 1560 530 1570 530 L 1685 530 Q 1695 530 1695 540 L 1695 555" stroke-miterlimit="10" stroke-width="2"></path></g></g></g></g><g transform="matrix(1,0,0,1,1555.5,500.5)"><g transform="translate(0,0)"><g transform="translate(-1561.1538461538462,-504.16483516483515) translate(5.653846153846189,3.6648351648351536) matrix(1,0,0,1,0,0)"><g><path fill="none" stroke="#000000" d="M 1560 505 L 1560 513.374896350934 Q 1560 521.7497927018682 1560 530.1246890528022 L 1560 530.1246890528022 Q 1560 538.4995854037362 1560 546.8744817546703 L 1560 555.2493781056044" stroke-miterlimit="10" stroke-width="2"></path></g></g></g></g><g transform="translate(0,0) matrix(1,0,0,1,1645,430)"><g><g transform="translate(0,0) scale(1,0.75)"><g><path fill="#FFFFFF" stroke="none" d="M 0 0 L 100 0 Q 100 0 100 0 L 100 100 Q 100 100 100 100 L 0 100 Q 0 100 0 100 L 0 0 Q 0 0 0 0 Z"></path><g transform="scale(1,1.3333333333333333)"><path fill="none" stroke="#333333" d="M 0 0 L 100 0 Q 100 0 100 0 L 100 75 Q 100 75 100 75 L 0 75 Q 0 75 0 75 L 0 0 Q 0 0 0 0 Z" stroke-miterlimit="10" stroke-width="2"></path></g></g><g><g transform="scale(1,1.3333333333333333)"><path fill="rgb(0,0,0)" stroke="none" d="M 2 1.5 L 2 72.75 L 97 72.75 L 97 2.25 L 3 2.25 Z" fill-opacity="0" opacity="0"></path><path fill="none" stroke="#3C7626" d="M 2 1.5 M 2 1.5 L 2 5.5 M 2 5.5 M 2 7.5 L 2 11.5 M 2 11.5 M 2 13.5 L 2 17.5 M 2 17.5 M 2 19.5 L 2 23.5 M 2 23.5 M 2 25.5 L 2 29.5 M 2 29.5 M 2 31.5 L 2 35.5 M 2 35.5 M 2 37.5 L 2 41.5 M 2 41.5 M 2 43.5 L 2 47.5 M 2 47.5 M 2 49.5 L 2 53.5 M 2 53.5 M 2 55.5 L 2 59.5 M 2 59.5 M 2 61.5 L 2 65.5 M 2 65.5 M 2 67.5 L 2 71.5 M 2 71.5 M 2.75 72.75 L 6.75 72.75 M 6.75 72.75 M 8.75 72.75 L 12.75 72.75 M 12.75 72.75 M 14.75 72.75 L 18.75 72.75 M 18.75 72.75 M 20.75 72.75 L 24.75 72.75 M 24.75 72.75 M 26.75 72.75 L 30.75 72.75 M 30.75 72.75 M 32.75 72.75 L 36.75 72.75 M 36.75 72.75 M 38.75 72.75 L 42.75 72.75 M 42.75 72.75 M 44.75 72.75 L 48.75 72.75 M 48.75 72.75 M 50.75 72.75 L 54.75 72.75 M 54.75 72.75 M 56.75 72.75 L 60.75 72.75 M 60.75 72.75 M 62.75 72.75 L 66.75 72.75 M 66.75 72.75 M 68.75 72.75 L 72.75 72.75 M 72.75 72.75 M 74.75 72.75 L 78.75 72.75 M 78.75 72.75 M 80.75 72.75 L 84.75 72.75 M 84.75 72.75 M 86.75 72.75 L 90.75 72.75 M 90.75 72.75 M 92.75 72.75 L 96.75 72.75 M 96.75 72.75 M 97 71 L 97 67 M 97 67 M 97 65 L 97 61 M 97 61 M 97 59 L 97 55 M 97 55 M 97 53 L 97 49 M 97 49 M 97 47 L 97 43 M 97 43 M 97 41 L 97 37 M 97 37 M 97 35 L 97 31 M 97 31 M 97 29 L 97 25 M 97 25 M 97 23 L 97 19 M 97 19 M 97 17 L 97 13 M 97 13 M 97 11 L 97 7 M 97 7 M 97 5 L 97 2.25 L 95.75 2.25 M 95.75 2.25 M 93.75 2.25 L 89.75 2.25 M 89.75 2.25 M 87.75 2.25 L 83.75 2.25 M 83.75 2.25 M 81.75 2.25 L 77.75 2.25 M 77.75 2.25 M 75.75 2.25 L 71.75 2.25 M 71.75 2.25 M 69.75 2.25 L 65.75 2.25 M 65.75 2.25 M 63.75 2.25 L 59.75 2.25 M 59.75 2.25 M 57.75 2.25 L 53.75 2.25 M 53.75 2.25 M 51.75 2.25 L 47.75 2.25 M 47.75 2.25 M 45.75 2.25 L 41.75 2.25 M 41.75 2.25 M 39.75 2.25 L 35.75 2.25 M 35.75 2.25 M 33.75 2.25 L 29.75 2.25 M 29.75 2.25 M 27.75 2.25 L 23.75 2.25 M 23.75 2.25 M 21.75 2.25 L 17.75 2.25 M 17.75 2.25 M 15.75 2.25 L 11.75 2.25 M 11.75 2.25 M 9.75 2.25 L 5.75 2.25 M 5.75 2.25 M 3.75 2.25 L 3 2.25 Z" stroke-miterlimit="10" stroke-width="2" opacity="0"></path></g></g></g></g></g><g transform="scale(1,1) matrix(1,0,0,1,1647,430) translate(2,30.5)"><text fill="#000000" stroke="none" font-family="Arial" font-size="12px" font-style="normal" font-weight="normal" text-decoration="none" x="8.5" y="11">Shopping List</text></g><g transform="translate(0,0) matrix(1,0,0,1,1790,430)"><g><g transform="translate(0,0) scale(1,0.75)"><g><path fill="#FFFFFF" stroke="none" d="M 100 50 A 50 50 0 1 0 99.99997500000207 50.04999999166668 Z"></path><g transform="scale(1,1.3333333333333333)"><path fill="none" stroke="#333333" d="M 50 0 C 77.614235 0 100 16.78932375 100 37.5 C 100 58.21067625 77.614235 75 50 75 C 22.385765000000003 75 0 58.21067625 0 37.5 C 0 16.78932375 22.385765000000003 0 50 0 Z" stroke-miterlimit="10" stroke-width="2"></path></g></g></g></g></g><g transform="scale(1,1) matrix(1,0,0,1,1792,430) translate(2,9.5)"><text fill="#000000" stroke="none" font-family="Arial" font-size="12px" font-style="normal" font-weight="normal" text-decoration="none" x="0.5" y="11">Allows checking </text><text fill="#000000" stroke="none" font-family="Arial" font-size="12px" font-style="normal" font-weight="normal" text-decoration="none" x="6" y="25">off ingredients </text><text fill="#000000" stroke="none" font-family="Arial" font-size="12px" font-style="normal" font-weight="normal" text-decoration="none" x="18" y="39">as they;re </text><text fill="#000000" stroke="none" font-family="Arial" font-size="12px" font-style="normal" font-weight="normal" text-decoration="none" x="27" y="53">bought</text></g><g transform="matrix(1,0,0,1,1740.5,463)"><g transform="translate(0,0)"><g transform="translate(-1843.6483516483515,-428.4725274725275) translate(103.14835164835154,-34.527472527472526) matrix(1,0,0,1,0,0)"><g><path fill="none" stroke="#000000" d="M 1790 467.5 L 1782.5 467.5 Q 1775 467.5 1767.5 467.5 L 1767.5 467.5 Q 1760 467.5 1752.5 467.5 L 1745 467.5" stroke-miterlimit="10" stroke-width="2"></path></g></g></g></g><g transform="matrix(1,0,0,1,1055.5,363)"><g transform="translate(0,0)"><g transform="translate(-1055.6373626373627,-369) translate(0.13736263736268484,6) matrix(1,0,0,1,0,0)"><g><path fill="none" stroke="#000000" d="M 1060 367.5 L 1685 367.5 Q 1695 367.5 1695 377.5 L 1695 430" stroke-miterlimit="10" stroke-width="2"></path></g></g></g></g><g transform="matrix(1,0,0,1,632.1263736263736,305.0274725274725)"><g transform="translate(0,0)"><g transform="translate(-636.6263736263736,-309.5274725274725) translate(4.5,4.5) matrix(1,0,0,1,0,0)"><g><path fill="none" stroke="#000000" d="M 636.6263736263736 309.5274725274725 L 636.6263736263736 309.5274725274725 Q 636.6263736263736 309.5274725274725 636.6263736263736 309.5274725274725 L 636.6263736263736 309.5274725274725 Q 636.6263736263736 309.5274725274725 636.6263736263736 309.5274725274725 L 636.6263736263736 309.5274725274725" stroke-miterlimit="10" stroke-width="2"></path></g></g></g></g><g transform="translate(0,0) matrix(1,0,0,1,780,242.5)"><g><g transform="translate(0,0) scale(1,0.75)"><g><path fill="#FFFFFF" stroke="none" d="M 100 50 A 50 50 0 1 0 99.99997500000207 50.04999999166668 Z"></path><g transform="scale(1,1.3333333333333333)"><path fill="none" stroke="#333333" d="M 50 0 C 77.614235 0 100 16.78932375 100 37.5 C 100 58.21067625 77.614235 75 50 75 C 22.385765000000003 75 0 58.21067625 0 37.5 C 0 16.78932375 22.385765000000003 0 50 0 Z" stroke-miterlimit="10" stroke-width="2"></path></g></g></g></g></g><g transform="scale(1,1) matrix(1,0,0,1,782,242.5) translate(2,30.5)"><text fill="#000000" stroke="none" font-family="Arial" font-size="12px" font-style="normal" font-weight="normal" text-decoration="none" x="6.5" y="11">Email Address</text></g><g transform="translate(0,0) matrix(1,0,0,1,650,242.5)"><g><g transform="translate(0,0) scale(1,0.75)"><g><path fill="#FFFFFF" stroke="none" d="M 100 50 A 50 50 0 1 0 99.99997500000207 50.04999999166668 Z"></path><g transform="scale(1,1.3333333333333333)"><path fill="none" stroke="#333333" d="M 50 0 C 77.614235 0 100 16.78932375 100 37.5 C 100 58.21067625 77.614235 75 50 75 C 22.385765000000003 75 0 58.21067625 0 37.5 C 0 16.78932375 22.385765000000003 0 50 0 Z" stroke-miterlimit="10" stroke-width="2"></path></g></g></g></g></g><g transform="scale(1,1) matrix(1,0,0,1,652,242.5) translate(2,30.5)"><text fill="#000000" stroke="none" font-family="Arial" font-size="12px" font-style="normal" font-weight="normal" text-decoration="none" x="29.5" y="11">Name</text></g><g transform="translate(0,0) matrix(1,0,0,1,550,132.5)"><g><g transform="translate(0,0) scale(1,0.75)"><g><path fill="#FFFFFF" stroke="none" d="M 0 0 L 100 0 Q 100 0 100 0 L 100 100 Q 100 100 100 100 L 0 100 Q 0 100 0 100 L 0 0 Q 0 0 0 0 Z"></path><g transform="scale(1,1.3333333333333333)"><path fill="none" stroke="#333333" d="M 0 0 L 100 0 Q 100 0 100 0 L 100 75 Q 100 75 100 75 L 0 75 Q 0 75 0 75 L 0 0 Q 0 0 0 0 Z" stroke-miterlimit="10" stroke-width="2"></path></g></g><g><g transform="scale(1,1.3333333333333333)"><path fill="rgb(0,0,0)" stroke="none" d="M 2 1.5 L 2 72.75 L 97 72.75 L 97 2.25 L 3 2.25 Z" fill-opacity="0" opacity="0"></path><path fill="none" stroke="#3C7626" d="M 2 1.5 M 2 1.5 L 2 5.5 M 2 5.5 M 2 7.5 L 2 11.5 M 2 11.5 M 2 13.5 L 2 17.5 M 2 17.5 M 2 19.5 L 2 23.5 M 2 23.5 M 2 25.5 L 2 29.5 M 2 29.5 M 2 31.5 L 2 35.5 M 2 35.5 M 2 37.5 L 2 41.5 M 2 41.5 M 2 43.5 L 2 47.5 M 2 47.5 M 2 49.5 L 2 53.5 M 2 53.5 M 2 55.5 L 2 59.5 M 2 59.5 M 2 61.5 L 2 65.5 M 2 65.5 M 2 67.5 L 2 71.5 M 2 71.5 M 2.75 72.75 L 6.75 72.75 M 6.75 72.75 M 8.75 72.75 L 12.75 72.75 M 12.75 72.75 M 14.75 72.75 L 18.75 72.75 M 18.75 72.75 M 20.75 72.75 L 24.75 72.75 M 24.75 72.75 M 26.75 72.75 L 30.75 72.75 M 30.75 72.75 M 32.75 72.75 L 36.75 72.75 M 36.75 72.75 M 38.75 72.75 L 42.75 72.75 M 42.75 72.75 M 44.75 72.75 L 48.75 72.75 M 48.75 72.75 M 50.75 72.75 L 54.75 72.75 M 54.75 72.75 M 56.75 72.75 L 60.75 72.75 M 60.75 72.75 M 62.75 72.75 L 66.75 72.75 M 66.75 72.75 M 68.75 72.75 L 72.75 72.75 M 72.75 72.75 M 74.75 72.75 L 78.75 72.75 M 78.75 72.75 M 80.75 72.75 L 84.75 72.75 M 84.75 72.75 M 86.75 72.75 L 90.75 72.75 M 90.75 72.75 M 92.75 72.75 L 96.75 72.75 M 96.75 72.75 M 97 71 L 97 67 M 97 67 M 97 65 L 97 61 M 97 61 M 97 59 L 97 55 M 97 55 M 97 53 L 97 49 M 97 49 M 97 47 L 97 43 M 97 43 M 97 41 L 97 37 M 97 37 M 97 35 L 97 31 M 97 31 M 97 29 L 97 25 M 97 25 M 97 23 L 97 19 M 97 19 M 97 17 L 97 13 M 97 13 M 97 11 L 97 7 M 97 7 M 97 5 L 97 2.25 L 95.75 2.25 M 95.75 2.25 M 93.75 2.25 L 89.75 2.25 M 89.75 2.25 M 87.75 2.25 L 83.75 2.25 M 83.75 2.25 M 81.75 2.25 L 77.75 2.25 M 77.75 2.25 M 75.75 2.25 L 71.75 2.25 M 71.75 2.25 M 69.75 2.25 L 65.75 2.25 M 65.75 2.25 M 63.75 2.25 L 59.75 2.25 M 59.75 2.25 M 57.75 2.25 L 53.75 2.25 M 53.75 2.25 M 51.75 2.25 L 47.75 2.25 M 47.75 2.25 M 45.75 2.25 L 41.75 2.25 M 41.75 2.25 M 39.75 2.25 L 35.75 2.25 M 35.75 2.25 M 33.75 2.25 L 29.75 2.25 M 29.75 2.25 M 27.75 2.25 L 23.75 2.25 M 23.75 2.25 M 21.75 2.25 L 17.75 2.25 M 17.75 2.25 M 15.75 2.25 L 11.75 2.25 M 11.75 2.25 M 9.75 2.25 L 5.75 2.25 M 5.75 2.25 M 3.75 2.25 L 3 2.25 Z" stroke-miterlimit="10" stroke-width="2" opacity="0"></path></g></g></g></g></g><g transform="scale(1,1) matrix(1,0,0,1,552,132.5) translate(2,23.5)"><text fill="#000000" stroke="none" font-family="Arial" font-size="12px" font-style="normal" font-weight="normal" text-decoration="none" x="20.5" y="11">Previous </text><text fill="#000000" stroke="none" font-family="Arial" font-size="12px" font-style="normal" font-weight="normal" text-decoration="none" x="18.5" y="25">Questions</text></g><g transform="matrix(1,0,0,1,645.5,165.5)"><g transform="translate(0,0)"><g transform="translate(-704.2087912087911,-170.3076923076923) translate(58.708791208791126,4.807692307692292) matrix(1,0,0,1,0,0)"><g><path fill="none" stroke="#000000" d="M 700 170 L 691.6666666666667 170 Q 683.3333333333334 170 675 170 L 675 170 Q 666.6666666666666 170 658.3333333333333 170 L 650 170" stroke-miterlimit="10" stroke-width="2"></path></g></g></g></g><g transform="matrix(1,0,0,1,695.5,203)"><g transform="translate(0,0)"><g transform="translate(-755.5714285714286,-208.15384615384613) translate(60.071428571428555,5.153846153846132) matrix(1,0,0,1,0,0)"><g><path fill="none" stroke="#000000" d="M 750 207.5 L 750 216.25 Q 750 225 740 225 L 710 225 Q 700 225 700 233.75 L 700 242.5" stroke-miterlimit="10" stroke-width="2"></path></g></g></g></g><g transform="matrix(1,0,0,1,745.5,203)"><g transform="translate(0,0)"><g transform="translate(-752.8681318681319,-206.80219780219778) translate(7.368131868131854,3.8021978021977816) matrix(1,0,0,1,0,0)"><g><path fill="none" stroke="#000000" d="M 750 207.5 L 750 216.25 Q 750 225 760 225 L 820 225 Q 830 225 830 233.75 L 830 242.5" stroke-miterlimit="10" stroke-width="2"></path></g></g></g></g><g transform="translate(0,0) matrix(1,0,0,1,530,242.5)"><g><g transform="translate(0,0) scale(1,0.75)"><g><path fill="#FFFFFF" stroke="none" d="M 100 50 A 50 50 0 1 0 99.99997500000207 50.04999999166668 Z"></path><g transform="scale(1,1.3333333333333333)"><path fill="none" stroke="#333333" d="M 50 0 C 77.614235 0 100 16.78932375 100 37.5 C 100 58.21067625 77.614235 75 50 75 C 22.385765000000003 75 0 58.21067625 0 37.5 C 0 16.78932375 22.385765000000003 0 50 0 Z" stroke-miterlimit="10" stroke-width="2"></path></g></g></g></g></g><g transform="scale(1,1) matrix(1,0,0,1,532,242.5) translate(2,30.5)"><text fill="#000000" stroke="none" font-family="Arial" font-size="12px" font-style="normal" font-weight="normal" text-decoration="none" x="21.5" y="11">Question</text></g><g transform="matrix(1,0,0,1,575.5,203)"><g transform="translate(0,0)"><g transform="translate(-752.8681318681319,-210.85714285714286) translate(177.36813186813185,7.857142857142861) matrix(1,0,0,1,0,0)"><g><path fill="none" stroke="#000000" d="M 750 207.5 L 750 216.25 Q 750 225 740 225 L 590 225 Q 580 225 580 233.75 L 580 242.5" stroke-miterlimit="10" stroke-width="2"></path></g></g></g></g></g></svg>